<svg version="1.1" id="Layer_1" xmlns="http://www.w3.org/2000/svg" xmlns:xlink="http://www.w3.org/1999/xlink" x="0px" y="0px"
	 width="100%" viewBox="0 0 846 302" enable-background="new 0 0 846 302" xml:space="preserve">
<path fill="#000101" opacity="1.000000" stroke="none" 
	d="
M633.000000,303.000000 
	C423.500000,303.000000 214.500000,302.988281 5.500047,303.093536 
	C1.750768,303.095428 0.900578,302.249695 0.905167,298.499878 
	C1.024891,200.666702 1.022987,102.833305 0.904405,5.000116 
	C0.900255,1.575996 1.576550,0.904630 5.000034,0.905883 
	C284.333344,1.008103 563.666687,1.008103 842.999939,0.905883 
	C846.423462,0.904630 847.099792,1.575997 847.095642,5.000116 
	C846.977112,102.999969 846.977051,201.000031 847.095581,298.999878 
	C847.099731,302.424011 846.424438,303.102722 842.999817,303.096436 
	C773.166748,302.967926 703.333313,303.000000 633.000000,303.000000 
z"/>
<path fill="#16978A" opacity="1.000000" stroke="none" 
	d="
M186.702118,28.435986 
	C195.665451,28.108231 204.329254,28.128826 212.988998,27.951109 
	C216.630356,27.876383 218.012390,29.114288 216.671860,32.713158 
	C212.166611,44.808140 211.694962,57.384701 211.799164,70.123322 
	C212.074448,103.779793 211.832962,137.441452 212.246201,171.095535 
	C212.571136,197.558441 212.488800,224.047424 214.761459,250.456909 
	C215.002945,253.263046 214.843277,256.120728 214.667938,258.941986 
	C214.352448,264.018311 214.578735,268.892212 217.693588,273.282806 
	C218.619812,274.588348 219.046036,276.323669 219.425812,277.927338 
	C220.459885,282.293945 218.947495,284.195221 214.409317,284.182922 
	C205.250397,284.158081 196.091721,284.038757 186.468155,283.895020 
	C182.643051,280.051056 184.587204,275.457184 184.526764,271.372467 
	C184.301270,256.127869 184.356537,240.872253 184.425644,225.622482 
	C184.491776,211.029388 184.467392,196.435638 184.504013,181.842880 
	C184.533966,169.908218 184.446976,157.969925 184.433289,146.034332 
	C184.419601,134.094910 184.428345,122.153969 184.471436,110.213745 
	C184.513901,98.441727 184.519058,86.668808 184.475677,74.896988 
	C184.424347,60.967892 184.546677,47.038830 184.429428,33.109928 
	C184.414795,31.372946 184.994247,29.837193 186.702118,28.435986 
z"/>
<path fill="#1AD2CD" opacity="1.000000" stroke="none" 
	d="
M581.297485,282.796265 
	C576.419922,284.959717 571.868286,283.517090 567.286255,283.251373 
	C562.179321,282.955200 557.044128,283.146759 551.460815,283.035095 
	C548.012390,280.678955 549.908752,277.497437 549.341187,274.377686 
	C555.520630,254.306259 553.713806,233.891418 554.437561,213.724335 
	C555.887451,173.325363 554.822144,132.908966 554.715515,92.501564 
	C554.691040,83.226639 554.096802,73.963875 554.344299,64.652000 
	C554.606689,54.782745 550.784607,45.440716 549.129883,35.400955 
	C550.712952,33.184177 548.431519,30.569042 550.722168,28.618370 
	C560.368347,28.326233 569.728210,28.261633 579.548218,28.293648 
	C582.159485,29.797943 582.071106,32.038895 582.126831,34.197990 
	C582.251404,39.022991 582.189392,43.849716 582.183899,48.675625 
	C582.109375,114.243156 581.979553,179.813461 582.439514,245.375671 
	C582.513550,255.924835 580.296265,266.455475 582.123596,277.008331 
	C582.426331,278.756409 582.341309,280.669281 581.297485,282.796265 
z"/>
<path fill="#1DF3F1" opacity="1.000000" stroke="none" 
	d="
M743.751282,29.320093 
	C751.999451,27.972900 760.034973,28.685125 768.500793,28.699745 
	C771.868835,30.798668 771.117310,33.878685 771.114868,36.585434 
	C771.086304,68.358780 771.215881,100.132011 771.168945,131.905304 
	C771.151001,144.049759 771.205872,156.194427 771.139771,168.338577 
	C771.121887,171.629379 771.631409,175.024902 769.862671,178.107208 
	C769.521301,178.702072 769.524902,179.356155 769.642883,180.035934 
	C772.649963,197.357986 770.852295,214.759964 770.649658,232.147125 
	C770.576599,238.422546 771.125488,244.730453 771.368164,251.024780 
	C771.739380,260.653809 770.971680,270.266052 771.003723,279.889526 
	C771.007751,281.092346 770.568787,282.164978 769.363220,283.331299 
	C760.979004,283.677002 752.954346,283.739197 744.470093,283.708069 
	C741.260437,281.652802 742.156128,278.678589 741.871338,276.016327 
	C741.542297,272.939453 742.710632,269.906067 741.995850,266.400024 
	C745.142517,253.369492 743.936646,240.526794 744.006836,227.752441 
	C744.164917,198.963913 744.450073,170.175552 744.467834,141.386978 
	C744.481689,118.906364 744.151733,96.425659 744.027344,73.944702 
	C744.011292,71.039352 743.401184,68.346474 742.017700,65.402802 
	C741.937622,60.577347 741.791321,56.135483 741.903564,51.692200 
	C741.953735,49.703659 742.003540,47.724953 743.615967,45.818474 
	C744.161438,45.283600 744.437012,44.995548 744.564209,44.394135 
	C740.737915,39.521675 741.141479,34.618160 743.751282,29.320093 
z"/>
<path fill="#17A397" opacity="1.000000" stroke="none" 
	d="
M256.627472,28.226589 
	C264.732727,27.270542 272.521942,26.599781 280.692139,27.695786 
	C284.225800,30.989658 283.078552,35.035698 283.144531,38.747700 
	C283.371552,51.523350 282.758392,64.291954 282.809296,77.078293 
	C282.884033,95.858292 283.264862,114.656158 282.516235,133.440094 
	C281.932495,148.086761 283.795990,162.713470 282.882111,177.787033 
	C282.459961,178.785782 283.045654,178.203629 282.576813,178.643463 
	C278.525909,182.443726 279.219116,186.173660 282.788788,190.309799 
	C283.646942,199.857635 282.647919,208.972244 282.566376,218.096466 
	C282.398773,236.843750 282.693329,255.592911 283.139038,274.338318 
	C283.200592,276.927582 283.687836,279.711273 281.389404,282.307068 
	C273.321564,283.550354 265.623505,282.689972 257.471497,282.696045 
	C255.250076,281.476532 254.980682,279.695160 254.900238,277.812653 
	C254.814957,275.817017 254.805740,273.821106 254.805634,271.824829 
	C254.801590,194.130966 254.787933,116.437096 254.851303,38.743282 
	C254.854080,35.347427 253.919968,31.710510 256.627472,28.226589 
z"/>
<path fill="#18ADA3" opacity="1.000000" stroke="none" 
	d="
M311.708923,28.184116 
	C336.216827,27.760916 350.447693,38.744755 357.005737,62.820415 
	C363.937805,88.269081 362.768250,113.918404 358.432190,139.580246 
	C356.717468,149.728439 355.455872,160.044601 349.426117,168.917694 
	C340.367462,182.247879 329.561981,193.143097 312.382935,195.944153 
	C307.344604,191.823151 309.667267,186.925339 310.488464,181.854919 
	C310.761047,180.070282 310.079926,178.852936 309.451691,177.238678 
	C309.113892,172.394363 308.823151,167.905075 309.829529,163.061340 
	C310.411224,161.766220 311.004272,160.910767 311.845673,160.385986 
	C322.420685,153.790207 326.083588,143.416489 327.776367,131.825165 
	C330.313812,114.450089 329.320068,97.075554 327.853271,79.722755 
	C327.392944,74.277443 325.838715,68.998474 322.034821,64.604843 
	C319.227264,61.362019 314.895844,61.147678 311.438843,58.424614 
	C310.915833,57.668957 310.567322,57.244606 310.525970,56.765049 
	C309.763153,47.916351 309.836395,39.061142 310.426056,30.207666 
	C310.468811,29.566029 310.988281,29.028301 311.708923,28.184116 
z"/>
<path fill="#148170" opacity="1.000000" stroke="none" 
	d="
M63.369667,282.403320 
	C56.651669,283.364929 50.295094,282.861176 43.478859,282.691833 
	C41.489838,281.464203 41.327839,279.857819 41.503616,278.130035 
	C42.112072,272.149445 41.807117,266.150299 41.810455,260.160614 
	C41.842094,203.383743 41.771526,146.606750 41.868797,89.830070 
	C41.899223,72.069962 42.059738,54.311066 41.871754,36.550552 
	C41.842541,33.790371 41.251041,30.836575 43.644707,28.112530 
	C50.042645,27.792597 56.055683,27.741135 62.531139,27.770844 
	C64.783195,29.415380 65.142609,31.485619 65.138657,33.719616 
	C65.053978,81.557365 65.469437,129.395599 64.924667,177.660278 
	C61.159107,182.276062 63.011353,186.225540 65.435982,190.579498 
	C64.800148,211.316437 65.355179,231.633331 65.193832,251.946640 
	C65.130348,259.939880 65.247581,267.934326 65.138268,275.927216 
	C65.109184,278.053558 65.418159,280.312592 63.369667,282.403320 
z"/>
<path fill="#1AC7C1" opacity="1.000000" stroke="none" 
	d="
M479.401794,93.791718 
	C483.947876,113.312798 487.721069,132.706635 492.318665,151.903046 
	C497.653351,174.176987 501.441772,196.752838 506.248444,219.127151 
	C510.367920,238.302795 513.514282,257.692627 519.485901,276.436462 
	C520.711243,280.282593 519.818237,282.372833 515.350037,282.622101 
	C504.195831,283.244324 493.056946,283.708618 481.941284,282.194427 
	C480.463959,281.993164 478.216431,282.309479 479.135254,279.456085 
	C483.077911,267.211884 480.661194,255.101303 478.349182,242.985519 
	C477.759644,239.896179 477.760590,236.644699 475.505188,233.669220 
	C474.618103,216.143539 474.288361,198.946091 475.645630,181.379791 
	C476.116455,180.024918 478.188843,179.397552 476.167053,177.702698 
	C474.586792,175.296707 474.873413,172.918091 474.865051,170.627304 
	C474.825195,159.699265 474.730621,148.770508 474.854492,137.417175 
	C474.077728,135.012756 474.042084,133.046478 474.949463,130.693542 
	C475.184326,128.920639 475.081421,127.568344 474.702484,125.808670 
	C474.648224,125.095879 474.645294,124.806137 474.655579,124.075584 
	C475.062286,115.716995 474.669098,107.790993 474.915222,99.872246 
	C475.005127,96.980240 475.262787,94.137863 479.401794,93.791718 
z"/>
<path fill="#1DF8F7" opacity="1.000000" stroke="none" 
	d="
M769.454346,283.707275 
	C769.002502,270.184937 769.168640,256.752502 768.959656,243.325851 
	C768.667236,224.542328 769.203674,205.763779 769.068237,186.981644 
	C769.039612,182.999817 768.957275,179.603027 763.232910,179.069534 
	C769.732361,179.277283 769.032959,175.239151 769.018494,171.484818 
	C768.887817,137.548737 768.766174,103.612549 768.720154,69.676285 
	C768.702087,56.383018 768.882751,43.089489 768.960571,29.317383 
	C781.225769,28.434839 793.500671,27.270987 805.779358,28.967518 
	C808.399597,29.329559 811.240845,29.868153 813.703674,29.240454 
	C819.590027,27.740223 822.188232,30.413410 823.644409,35.580418 
	C825.175110,41.011620 827.096680,46.335281 828.544312,51.786434 
	C829.649841,55.949318 828.096008,57.812672 823.927063,56.781231 
	C814.084229,54.346035 804.159607,55.060444 794.222168,55.152752 
	C785.581848,55.233009 782.348145,58.273193 780.850403,66.767799 
	C778.899902,77.830544 778.751221,88.950775 778.840027,100.106094 
	C778.930115,111.431519 778.858276,122.739281 777.164795,133.982773 
	C776.796265,136.429337 776.790588,138.979538 776.982178,141.453796 
	C778.628418,162.716766 777.265991,183.975571 776.923462,205.232315 
	C776.760010,215.376984 776.297852,225.504303 777.969543,235.583099 
	C779.548889,245.104660 777.635803,254.824081 779.752563,264.374298 
	C780.834839,269.257263 781.571838,274.166931 784.027344,278.598389 
	C785.467590,281.197662 784.639404,282.526001 781.842224,283.164886 
	C777.884705,284.068848 773.893372,283.784790 769.454346,283.707275 
z"/>
<path fill="#158D7E" opacity="1.000000" stroke="none" 
	d="
M115.650314,32.125393 
	C127.611809,35.719421 133.791061,44.826664 137.960236,55.392357 
	C144.426300,71.778976 145.376129,89.042450 145.185440,106.464447 
	C145.015060,122.029869 142.508057,137.266830 139.526642,152.459732 
	C136.761246,166.551910 127.688042,176.629318 117.524460,186.344269 
	C114.592781,185.551865 113.990585,183.392166 113.948051,180.934494 
	C113.704536,166.863846 113.926140,152.792297 114.165176,138.726242 
	C114.220192,135.489365 113.625862,132.546478 112.631866,129.105774 
	C112.249634,124.218048 112.860931,119.797646 112.887032,115.349327 
	C112.947029,105.120941 111.170792,94.964775 111.831718,84.722237 
	C111.959000,82.749817 111.797318,80.758652 112.415474,78.374817 
	C113.875473,76.324829 114.281082,74.642693 114.163742,72.454330 
	C113.531670,60.666122 113.997101,48.858826 113.913559,37.058887 
	C113.901726,35.387997 114.022064,33.716892 115.650314,32.125393 
z"/>
<path fill="#19C4BC" opacity="1.000000" stroke="none" 
	d="
M476.002594,125.932114 
	C476.526489,127.118172 476.755707,128.240921 476.979340,129.716797 
	C475.490173,131.686234 471.284027,132.673386 475.951782,135.847900 
	C477.665833,138.687622 476.875214,141.548904 476.974304,144.307495 
	C477.370270,155.327240 476.305023,166.374023 477.832306,177.706055 
	C478.218262,178.205902 478.341919,178.379639 478.439636,178.872223 
	C477.015778,181.582794 476.981445,184.210739 476.987122,186.877518 
	C477.015656,200.260895 477.016663,213.644394 476.981201,227.027740 
	C476.976044,228.967255 477.425690,231.028015 475.663147,233.044144 
	C469.837250,229.102798 463.509186,228.483261 456.454681,228.994171 
	C451.237732,224.831696 452.556946,219.883102 454.369812,214.592834 
	C455.351776,213.631424 456.175049,213.292236 457.315430,213.525940 
	C457.465698,213.570557 457.580719,213.410248 457.418457,213.384125 
	C456.591125,212.971863 455.777008,212.939850 454.842712,212.202301 
	C452.176239,208.401718 452.596588,204.650192 453.862183,200.463043 
	C456.034332,197.591049 459.127045,197.834381 461.756958,197.015869 
	C466.957947,195.397141 468.272034,193.931549 467.083008,188.809723 
	C462.766113,170.214310 460.623383,151.232956 456.866486,132.541870 
	C456.175079,129.101913 454.866730,125.879997 453.555603,122.266998 
	C452.741272,117.249023 452.101257,112.632912 456.056152,108.605141 
	C455.827148,107.393158 455.093933,106.820000 454.411072,105.762100 
	C451.859894,100.148277 453.267883,94.560242 452.860107,88.688187 
	C452.674896,87.398399 452.943573,86.571640 453.147217,85.301231 
	C452.862000,78.221298 452.604736,71.569618 453.185394,64.510529 
	C453.521576,62.541748 454.312744,61.015270 453.527771,58.997818 
	C452.655182,56.255135 453.030670,53.834877 453.089417,51.034512 
	C453.480896,49.573566 453.539825,48.488926 453.395020,46.963707 
	C453.045288,39.979118 451.525269,33.361729 454.653564,26.673708 
	C465.585327,25.095228 466.670380,25.925325 468.098511,36.403393 
	C468.165741,36.896751 468.158295,37.415955 468.315399,37.879131 
	C474.410706,55.852131 475.351318,74.899391 479.832214,93.604691 
	C476.593079,94.687119 477.077332,97.252846 477.001923,99.529091 
	C476.728577,107.782043 477.561188,116.055382 476.316223,124.636047 
	C475.660980,125.147217 475.518585,125.437508 476.002594,125.932114 
z"/>
<path fill="#19C0B8" opacity="1.000000" stroke="none" 
	d="
M454.928009,62.838470 
	C454.976318,70.538460 454.944977,77.928253 454.875305,85.803406 
	C453.611664,86.817703 452.400269,87.177231 451.168579,85.755798 
	C450.729401,85.348053 451.394928,84.915649 450.676086,85.049911 
	C450.296265,87.257729 452.021729,86.868622 453.294617,87.570312 
	C455.769012,89.760567 454.825226,92.390945 454.981323,94.767754 
	C455.206268,98.192978 454.511169,101.690796 455.914612,105.424377 
	C456.141571,106.763626 456.975555,107.075241 457.819519,107.795013 
	C459.018158,108.227242 459.668427,109.330017 458.919037,109.639992 
	C453.611145,111.835419 455.244202,116.443718 454.889709,120.850876 
	C453.246033,123.327003 452.708527,125.793999 452.017120,128.168610 
	C446.985260,145.449997 444.243866,163.166748 442.018158,180.983093 
	C441.585754,184.444611 440.822571,187.858780 441.256592,191.391708 
	C441.752686,195.429749 443.710358,197.760681 448.009491,197.864807 
	C450.294281,197.920166 452.738403,197.604996 454.813293,199.811234 
	C455.257507,203.860153 454.380768,207.618011 455.836365,211.620605 
	C456.378601,212.386002 456.530579,212.849930 456.228027,213.696014 
	C454.349182,218.703125 454.673828,223.423553 455.924194,228.558350 
	C449.772919,231.039169 443.117767,230.231995 436.410400,231.786255 
	C432.692657,228.956223 434.450623,224.926498 433.535187,221.141113 
	C433.532074,219.974731 433.551208,219.208023 433.734467,218.103302 
	C433.916473,217.554260 434.010651,217.347107 434.265076,216.855804 
	C434.727783,215.997803 434.919464,215.396790 434.819092,214.367401 
	C433.452332,206.082565 433.881500,198.099243 433.844086,190.137024 
	C433.742706,168.575134 433.977600,147.013901 434.094299,125.050385 
	C435.351868,122.348503 433.988281,120.225899 433.679443,117.612244 
	C434.149536,101.401596 433.568176,85.599319 433.967865,69.802208 
	C434.059692,66.173836 435.110962,62.538502 433.996094,58.446243 
	C434.717499,51.952271 434.499603,45.919819 433.922455,39.450470 
	C435.497467,35.715645 432.432251,31.773870 435.712189,28.387604 
	C442.055939,27.464289 448.110077,26.837194 454.589325,26.302200 
	C455.011353,33.234890 455.008240,40.075478 455.007263,47.374069 
	C454.880737,48.009933 454.752136,48.187786 454.309235,48.350739 
	C453.360413,48.131279 454.252594,48.385685 453.605988,48.228966 
	C453.472839,48.196693 453.663696,48.250885 453.914917,48.401237 
	C454.607971,48.622929 454.930664,48.868118 455.097961,49.552132 
	C455.016846,52.575317 455.009796,55.271946 455.004211,58.414085 
	C454.617157,60.068073 454.048859,61.268841 454.928009,62.838470 
z"/>
<path fill="#1BD9D5" opacity="1.000000" stroke="none" 
	d="
M581.435669,283.298706 
	C579.063232,274.780396 579.832581,266.285828 580.512146,257.878326 
	C580.697266,255.588165 581.057495,253.433121 580.614868,251.135818 
	C580.240601,249.193359 580.024963,247.188095 580.024292,245.210526 
	C579.998901,173.232788 580.006958,101.255043 580.009399,28.833778 
	C583.829346,28.319176 587.650146,28.225601 591.471558,28.183805 
	C594.788086,28.147530 596.027527,29.799822 595.089783,32.958241 
	C588.640625,54.679825 587.293030,77.108200 586.626526,99.510109 
	C585.711914,130.252640 587.309998,160.983582 588.387451,191.713165 
	C588.835693,204.497314 588.268921,217.320023 588.049866,230.123245 
	C587.952576,235.809250 588.434998,241.384552 589.685669,246.946396 
	C590.360718,249.948669 591.855103,251.493149 594.830200,252.138535 
	C600.883484,253.451691 607.038879,253.422363 613.580811,253.962921 
	C614.817627,254.893082 615.777405,255.705017 615.838623,256.943512 
	C616.240540,265.072784 616.671997,273.206360 615.561584,281.318207 
	C615.493225,281.817963 615.066711,282.174469 614.385986,282.875732 
	C603.294739,283.916626 592.589783,283.379120 581.435669,283.298706 
z"/>
<path fill="#19BEB5" opacity="1.000000" stroke="none" 
	d="
M436.141907,216.902313 
	C435.591461,217.027298 435.414337,217.049545 434.971375,217.104019 
	C434.172119,217.853745 433.978485,218.599533 434.729797,219.632568 
	C436.728271,223.396530 435.740021,227.200928 436.004150,231.324402 
	C429.309998,233.740524 427.789093,239.204849 426.879272,245.156082 
	C425.133698,256.573914 423.319885,267.981354 421.509583,279.389160 
	C421.309875,280.647644 421.395691,282.123779 419.382385,282.655334 
	C417.690125,281.751007 417.002197,280.461975 416.986816,278.868378 
	C416.836060,263.248596 416.412659,247.626053 417.439911,231.598099 
	C417.520599,229.908432 417.870300,228.688354 418.082397,227.108887 
	C417.761047,224.102112 416.557220,221.466660 417.909607,218.458328 
	C418.722382,217.193283 418.264099,216.345825 417.568359,215.180206 
	C416.952515,209.921356 417.309265,204.968689 417.083435,199.631561 
	C417.686584,197.483398 417.801575,195.734116 417.083862,193.560120 
	C416.777985,174.974380 416.349823,156.807953 417.483215,138.222839 
	C419.886383,117.750961 426.907806,98.704536 430.378906,78.873512 
	C431.554565,72.156609 432.511078,65.401352 433.768707,58.326698 
	C435.598267,59.442585 435.997742,61.343426 435.996735,63.415562 
	C435.988617,80.399796 436.012451,97.384117 435.953583,114.368149 
	C435.948547,115.826294 435.416718,117.282616 434.960358,119.163483 
	C434.066528,121.062347 435.760986,121.619446 435.995544,123.038666 
	C436.003693,149.660995 435.960510,175.979218 436.063812,202.296875 
	C436.074158,204.933533 434.948761,207.814758 437.593842,210.254074 
	C438.854034,211.416229 435.173401,212.964813 436.924591,215.174408 
	C437.140228,216.017105 436.980865,216.463058 436.141907,216.902313 
z"/>
<path fill="#148474" opacity="1.000000" stroke="none" 
	d="
M63.455292,282.762573 
	C63.003513,254.196777 63.006039,225.672379 62.992592,197.147995 
	C62.991417,194.654907 62.946915,192.169006 63.925171,189.373520 
	C63.995510,186.118011 66.992012,183.024673 63.145836,180.171875 
	C63.001999,129.504700 62.999527,79.159599 62.995308,28.333252 
	C68.353256,27.796892 73.712952,27.741770 79.534485,27.768467 
	C81.016373,28.961807 82.003334,30.100870 81.998474,31.730005 
	C81.975273,39.507004 82.781792,47.302334 81.253510,55.465477 
	C79.476990,58.050667 76.947098,57.877422 74.765793,58.552105 
	C71.479866,59.568455 69.002808,61.268234 69.522942,65.279037 
	C70.763153,74.842430 70.780273,84.365120 70.402641,94.047874 
	C69.611862,114.323944 70.111320,134.650665 70.188690,154.956284 
	C70.215912,162.099426 71.820900,163.560318 79.105339,163.842178 
	C81.906059,163.950562 84.785805,163.457245 87.839905,165.001190 
	C90.885872,167.971100 90.069405,171.472397 90.164223,174.680756 
	C90.390228,182.327515 91.394485,190.012222 89.335403,198.004639 
	C84.433891,200.474411 79.756248,202.583572 75.042580,204.608887 
	C70.335602,206.631332 67.621208,209.745377 67.838921,215.268845 
	C68.471611,231.320587 66.654823,247.446945 69.017044,263.436523 
	C69.787231,268.649811 70.728714,273.945160 73.141914,278.752228 
	C74.743713,281.942993 73.572365,282.979095 70.375824,282.857086 
	C68.221458,282.774841 66.062332,282.817261 63.455292,282.762573 
z"/>
<path fill="#147D6D" opacity="1.000000" stroke="none" 
	d="
M43.658417,27.694393 
	C44.019760,32.335926 44.136646,36.832966 43.953606,41.317768 
	C43.839725,44.107864 44.228168,46.520996 46.606560,48.272846 
	C44.034790,49.805355 43.650452,52.208733 44.003262,54.884029 
	C44.765266,60.662189 42.301640,66.728363 46.110912,72.341629 
	C47.039860,73.710503 43.856873,75.599808 43.875362,78.284737 
	C44.078159,107.730400 44.003231,137.177979 44.002296,166.625031 
	C44.001148,202.727066 44.016323,238.829117 43.955139,274.931061 
	C43.951252,277.225922 43.349579,279.519775 43.022060,282.213440 
	C40.027508,282.692871 37.036560,282.762329 34.046364,282.855774 
	C30.381001,282.970337 28.892857,280.861267 30.186567,277.799683 
	C38.908192,257.160095 35.720867,235.443832 35.885662,214.115829 
	C36.218910,170.985626 36.246845,127.845879 35.672939,84.719749 
	C35.472855,69.684486 36.643391,54.380497 32.037800,39.633518 
	C31.394402,37.573376 30.926775,35.453300 30.196043,33.426491 
	C28.480530,28.668232 29.121954,27.588085 34.307903,27.401741 
	C37.295441,27.294390 40.293758,27.487087 43.658417,27.694393 
z"/>
<path fill="#17A89D" opacity="1.000000" stroke="none" 
	d="
M311.960632,180.977478 
	C312.148468,185.862030 310.098602,190.500046 311.980133,195.549683 
	C305.434784,198.711243 298.881073,201.510620 292.297943,204.239075 
	C287.454376,206.246567 284.031769,209.393082 284.294250,215.011673 
	C285.159393,233.530029 282.170288,252.246552 287.094391,270.555389 
	C287.782867,273.115356 288.287079,275.786163 289.407684,278.154327 
	C291.082428,281.693542 290.317780,283.127960 286.383606,282.843781 
	C284.894073,282.736115 283.392548,282.794006 281.451599,282.695526 
	C280.997070,251.682617 280.987427,220.750595 280.966370,189.341553 
	C280.874390,186.054138 283.518707,183.334610 281.121460,180.132019 
	C281.013947,129.473175 281.020569,79.133080 281.040466,28.313110 
	C286.064697,27.763855 291.075684,27.694475 296.543518,27.732080 
	C298.009033,28.954271 299.043823,30.089399 298.990906,31.713614 
	C298.738770,39.450153 299.575470,47.207848 298.313477,55.343678 
	C296.671631,57.757992 294.468811,57.861523 292.331696,58.264091 
	C287.405853,59.191971 285.903564,60.700542 286.285919,65.711838 
	C286.729126,71.519562 287.283813,77.305305 287.150269,83.137672 
	C287.020874,88.786949 287.289001,94.426750 286.338928,100.070389 
	C285.476654,105.192215 286.602417,110.343887 287.074341,115.475060 
	C287.871918,124.147194 286.113129,132.731644 286.071655,141.389236 
	C286.044403,147.079407 286.903473,152.663132 287.231110,158.303085 
	C287.428497,161.700592 289.277191,163.485474 292.601746,163.687485 
	C296.592255,163.929993 300.589081,164.137939 304.506104,162.957733 
	C306.415619,162.382370 308.350708,161.746002 310.683167,162.928467 
	C311.361389,167.869568 311.659851,172.518234 311.004150,177.592743 
	C311.416412,178.408401 311.553131,178.894653 311.428131,179.654572 
	C311.348511,179.863937 311.122406,180.193970 311.309723,180.324158 
	C311.497040,180.454330 311.894318,180.741516 311.960632,180.977478 
z"/>
<path fill="#19BBB2" opacity="1.000000" stroke="none" 
	d="
M417.175629,138.117920 
	C419.558929,139.270752 418.974670,141.603531 418.979401,143.689484 
	C419.017334,160.484238 419.003143,177.279083 419.004364,194.543381 
	C419.520630,195.688751 419.715698,196.432739 419.252594,197.598694 
	C419.040222,203.732925 419.056335,209.536102 419.104248,215.826019 
	C419.409576,216.601837 419.511353,216.945923 419.279724,217.553955 
	C419.223602,220.848495 417.905701,224.328842 421.760376,226.703491 
	C421.286743,227.733994 419.883667,227.358047 419.190857,228.766693 
	C418.999725,246.606247 419.003082,264.195068 419.007538,282.231689 
	C413.043427,284.049988 406.975800,283.944611 400.462036,283.825500 
	C397.573792,282.010132 397.841400,279.392395 397.875214,276.955292 
	C398.060852,263.583191 397.184723,250.194870 398.462799,236.838531 
	C398.557709,235.847153 398.412140,234.858948 398.008118,233.436646 
	C399.445618,220.101089 402.575226,207.534058 405.481689,194.951599 
	C409.811035,176.209152 413.392731,157.327057 417.175629,138.117920 
z"/>
<path fill="#169688" opacity="1.000000" stroke="none" 
	d="
M186.540405,28.102573 
	C186.044525,35.662548 186.797684,43.180374 186.716629,50.686749 
	C186.645996,57.229069 186.694717,63.772758 186.703125,70.315834 
	C186.711945,77.166466 186.738968,84.017082 186.751755,90.867714 
	C186.763672,97.249718 186.768951,103.631744 186.774170,110.013756 
	C186.779922,117.026764 186.807907,124.039879 186.778687,131.052750 
	C186.751419,137.594666 186.619797,144.136292 186.609756,150.678146 
	C186.595490,159.983093 186.650635,169.288147 186.675690,178.593155 
	C186.693314,185.136246 186.757477,191.679642 186.716049,198.222351 
	C186.658157,207.366928 186.434464,216.511108 186.447449,225.655228 
	C186.456741,232.192291 187.207596,238.760818 186.766632,245.256882 
	C186.322311,251.802231 186.742798,258.331604 186.491501,264.867798 
	C186.259888,270.891876 186.761810,276.969177 186.003601,283.420258 
	C182.192795,283.633545 178.373245,283.536102 174.575317,283.196564 
	C172.564560,283.016815 170.544586,282.152740 172.608124,279.768463 
	C179.982391,271.248077 179.813522,260.662262 180.441208,250.479660 
	C181.801575,228.410706 182.516907,206.318741 181.641815,184.185379 
	C180.327652,150.947311 180.214722,117.681236 179.812424,84.422523 
	C179.683777,73.786652 179.279114,63.149883 178.773544,52.524334 
	C178.452621,45.779232 175.757156,39.633793 173.233963,33.472275 
	C171.094635,28.248102 171.262222,28.049814 177.093094,28.009911 
	C180.087708,27.989416 183.082718,28.026388 186.540405,28.102573 
z"/>
<path fill="#17A195" opacity="1.000000" stroke="none" 
	d="
M256.494141,27.733768 
	C256.963562,112.466667 256.984863,197.096527 257.008423,282.169128 
	C245.372726,283.736298 244.789627,283.008057 248.649231,272.268005 
	C251.496857,264.344025 252.432953,256.115326 252.434509,247.754257 
	C252.444153,196.010651 252.505310,144.266907 252.393158,92.523544 
	C252.365067,79.560509 252.074371,66.580170 251.300079,53.643951 
	C250.895493,46.884346 249.111130,40.208176 246.912704,33.747189 
	C245.092178,28.396822 245.477402,27.681715 251.056519,27.577499 
	C252.718781,27.546450 254.382797,27.610336 256.494141,27.733768 
z"/>
<path fill="#1BDEDA" opacity="1.000000" stroke="none" 
	d="
M614.442017,283.298706 
	C613.993164,273.775543 613.996887,264.381927 614.001221,254.523422 
	C628.108276,254.450531 641.657043,251.786301 654.752747,246.630630 
	C656.825378,245.814651 658.596252,245.374573 660.530762,247.473801 
	C662.380920,249.481567 662.031128,251.087280 661.239807,253.277542 
	C657.669922,263.157806 652.383301,272.152344 647.270874,281.255554 
	C646.025330,283.473358 644.355957,283.550507 642.302490,283.535370 
	C633.166748,283.468140 624.030518,283.458649 614.442017,283.298706 
z"/>
<path fill="#15897A" opacity="1.000000" stroke="none" 
	d="
M89.494690,198.300705 
	C86.583382,193.343338 89.062477,188.040833 88.396782,182.835938 
	C87.715324,177.507675 88.056625,172.048615 87.928642,166.166779 
	C88.104324,163.429047 89.955345,162.778030 91.604012,162.093933 
	C102.872154,157.418289 108.170677,148.366989 110.424072,136.926178 
	C110.952049,134.245560 110.727425,131.148392 113.735580,129.114853 
	C117.438736,130.037552 115.169594,132.731964 115.551476,134.557617 
	C117.037003,141.659439 117.002831,149.215790 116.738068,156.146118 
	C116.425804,164.319946 116.727684,172.604004 116.019028,180.800934 
	C115.875015,182.466812 116.087799,184.124634 117.038857,186.083313 
	C113.101685,190.555832 107.925354,192.534470 102.525833,194.141235 
	C98.278183,195.405258 94.081421,196.840317 89.494690,198.300705 
z"/>
<path fill="#1DEFEE" opacity="1.000000" stroke="none" 
	d="
M743.537109,28.983849 
	C744.000793,31.815992 744.244019,34.601574 743.932861,37.323788 
	C743.609619,40.151630 744.399658,42.089413 746.992432,43.531548 
	C747.065735,44.407047 747.045288,45.007637 746.498413,45.770454 
	C743.244873,46.737972 744.268616,49.244194 743.990295,51.216801 
	C743.364380,55.653610 745.453857,60.372559 742.276245,64.797607 
	C737.738770,58.585983 730.958313,58.320831 724.337219,57.715805 
	C721.525696,57.458893 718.703369,57.319958 715.443970,57.035957 
	C714.530212,56.475628 713.802673,56.016502 713.730286,55.443768 
	C712.612976,46.610928 711.550903,37.767433 714.708984,28.703121 
	C724.423889,29.382658 733.744507,29.365963 743.537109,28.983849 
z"/>
<path fill="#15897A" opacity="1.000000" stroke="none" 
	d="
M115.772278,31.595432 
	C116.021996,45.156403 116.028954,58.454578 115.980865,71.752556 
	C115.973274,73.851112 116.524712,76.176430 113.961365,77.891510 
	C110.995934,77.459961 110.685104,75.124557 110.166107,73.143700 
	C108.491501,66.752205 104.877480,62.351223 98.290352,60.639183 
	C96.536461,60.183338 94.912270,59.322834 93.704880,57.284454 
	C92.418037,48.342323 93.256454,39.762653 93.071236,31.201937 
	C93.049355,30.190634 93.653893,29.320646 94.681602,28.218630 
	C102.106636,27.394753 108.820610,29.295315 115.772278,31.595432 
z"/>
<path fill="#1CE9E7" opacity="1.000000" stroke="none" 
	d="
M714.733276,28.291794 
	C715.081482,37.599388 715.041016,46.806866 715.001282,56.479431 
	C707.508545,55.247669 700.274536,57.805790 692.914368,58.293629 
	C688.303101,58.599266 687.512146,57.767303 689.020874,53.261654 
	C690.973694,47.429901 692.260925,41.479862 693.321228,35.435875 
	C694.286560,29.933273 698.739014,26.968716 704.433960,27.485798 
	C707.731689,27.785212 711.040649,27.960518 714.733276,28.291794 
z"/>
<path fill="#17A99D" opacity="1.000000" stroke="none" 
	d="
M297.195801,56.685623 
	C296.995026,47.106926 296.997498,37.953564 297.000183,28.319633 
	C301.694244,27.764521 306.388123,27.689978 311.536377,27.727631 
	C311.994934,37.562618 311.999084,47.285408 312.004700,57.419617 
	C308.155548,60.846714 302.543213,60.570049 297.195801,56.685623 
z"/>
<path fill="#158677" opacity="1.000000" stroke="none" 
	d="
M94.533218,27.765427 
	C94.996033,37.537487 94.999176,47.226543 95.003517,57.373711 
	C91.112251,60.873093 85.463432,60.575409 80.184158,56.630241 
	C79.992523,47.070538 79.995407,37.941654 79.997307,28.331532 
	C84.688721,27.794331 89.381126,27.738373 94.533218,27.765427 
z"/>
<path fill="#18B7AE" opacity="1.000000" stroke="none" 
	d="
M397.709015,233.291595 
	C400.504028,234.384186 399.982605,236.878525 399.986877,239.137283 
	C400.014374,253.696701 400.004364,268.256195 400.007935,283.265869 
	C397.708862,283.493652 395.412140,283.219910 393.107513,283.058990 
	C387.132874,282.641815 386.799835,282.169708 388.201477,276.208984 
	C390.319000,267.204163 392.463196,258.204742 394.467163,249.174438 
	C395.611725,244.016800 396.500793,238.802475 397.709015,233.291595 
z"/>
<path fill="#1DEFEE" opacity="1.000000" stroke="none" 
	d="
M741.677551,266.242615 
	C744.242493,267.208588 743.991150,269.418274 743.997192,271.523590 
	C744.007812,275.258698 744.005737,278.993835 744.009766,283.171875 
	C739.098083,283.847137 737.149780,281.776978 738.223877,276.900543 
	C739.000732,273.373596 740.347656,269.972168 741.677551,266.242615 
z"/>
<path fill="#19BEB5" opacity="1.000000" stroke="none" 
	d="
M435.594879,28.036930 
	C435.498291,31.580429 437.223816,35.365284 434.290314,38.792908 
	C433.236786,36.844601 432.589478,34.643883 431.751007,32.518570 
	C430.373779,29.027624 431.500458,27.568789 435.594879,28.036930 
z"/>
<path fill="#1AD1CB" opacity="1.000000" stroke="none" 
	d="
M549.057617,274.344604 
	C552.518555,276.095551 550.357666,279.395538 551.000244,282.510620 
	C546.916931,283.240204 545.778320,281.618408 547.661316,277.915222 
	C548.180420,276.894318 548.490784,275.767273 549.057617,274.344604 
z"/>
<path fill="#1AD1CB" opacity="1.000000" stroke="none" 
	d="
M550.636230,28.300451 
	C550.631226,30.509216 551.916504,32.939690 549.486328,34.867561 
	C549.330200,32.705101 545.792297,29.803570 550.636230,28.300451 
z"/>
<path fill="#010B0A" opacity="1.000000" stroke="none" 
	d="
M198.168045,184.976166 
	C199.627914,185.136108 201.288589,184.709229 200.946716,186.570328 
	C200.577301,188.581253 198.568771,188.670258 197.029541,189.077255 
	C195.640366,189.444580 194.665405,188.554382 194.638062,187.249100 
	C194.595734,185.228836 196.128357,184.926865 198.168045,184.976166 
z"/>
<path fill="#041E1C" opacity="1.000000" stroke="none" 
	d="
M195.724152,259.259094 
	C196.143066,257.816132 196.352066,256.639526 198.218903,256.032501 
	C197.374008,258.616119 200.400436,261.673889 197.591049,263.100067 
	C195.466843,264.178406 196.558365,260.761169 195.724152,259.259094 
z"/>
<path fill="#041E1C" opacity="1.000000" stroke="none" 
	d="
M199.802841,251.830612 
	C200.474213,251.159958 200.923752,251.365952 201.112411,251.827682 
	C201.700653,253.267487 203.259995,254.430847 202.477036,256.264557 
	C202.387543,256.474182 201.817841,256.718475 201.669312,256.626373 
	C199.997009,255.589874 199.124756,254.151794 199.802841,251.830612 
z"/>
<path fill="#041E1C" opacity="1.000000" stroke="none" 
	d="
M196.668793,59.789925 
	C195.772232,60.944202 196.605804,63.037319 194.926514,63.003242 
	C193.850815,62.981411 192.774506,61.607288 193.126511,60.539536 
	C193.655060,58.936245 195.129349,58.665501 196.668793,59.789925 
z"/>
<path fill="#041E1C" opacity="1.000000" stroke="none" 
	d="
M194.912399,96.880516 
	C192.712875,96.053696 192.954056,94.558685 193.897705,93.394768 
	C194.603836,92.523834 195.790222,93.238564 196.395081,93.941177 
	C197.692062,95.447777 196.428482,96.159767 194.912399,96.880516 
z"/>
<path fill="#052624" opacity="1.000000" stroke="none" 
	d="
M195.429443,51.718147 
	C193.832352,54.393532 192.843338,52.784142 191.837265,51.486431 
	C191.322983,50.823082 190.896072,49.855938 191.678192,49.357361 
	C193.218048,48.375751 193.279587,50.382374 194.410934,51.043686 
	C194.922485,51.278450 195.165497,51.314365 195.429443,51.718147 
z"/>
<path fill="#010B0A" opacity="1.000000" stroke="none" 
	d="
M196.672241,74.754601 
	C194.936630,74.527351 194.433929,73.551216 194.969543,72.322433 
	C195.354706,71.438812 196.347458,71.528557 197.096130,71.975365 
	C198.590973,72.867485 198.096893,73.778976 196.672241,74.754601 
z"/>
<path fill="#052624" opacity="1.000000" stroke="none" 
	d="
M201.568039,198.322845 
	C201.285416,199.583115 200.624268,200.257812 199.618408,199.426025 
	C199.302658,199.164932 199.211151,198.144608 199.463058,197.779907 
	C200.122437,196.825348 200.786758,197.679413 201.568039,198.322845 
z"/>
<path fill="#041E1C" opacity="1.000000" stroke="none" 
	d="
M200.839493,193.850098 
	C200.558990,195.235840 199.802063,195.936096 198.776138,195.524948 
	C198.007797,195.217026 197.848663,194.123520 198.309174,193.463272 
	C198.999649,192.473221 199.938385,192.724762 200.839493,193.850098 
z"/>
<path fill="#041816" opacity="1.000000" stroke="none" 
	d="
M200.103455,246.159851 
	C201.353851,245.826981 202.317123,245.848862 202.710007,247.013947 
	C202.783783,247.232681 202.598831,247.757553 202.439606,247.801483 
	C201.143723,248.158905 200.295639,247.606445 200.103455,246.159851 
z"/>
<path fill="#073836" opacity="1.000000" stroke="none" 
	d="
M199.289337,170.534515 
	C198.384476,170.987564 197.736465,170.887817 197.572922,170.120773 
	C197.519104,169.868378 198.048325,169.259003 198.374939,169.205811 
	C199.088638,169.089569 199.603455,169.459717 199.289337,170.534515 
z"/>
<path fill="#169688" opacity="1.000000" stroke="none" 
	d="
M193.958435,239.439117 
	C193.768372,239.165573 193.757645,238.895935 193.746933,238.626297 
	C193.899139,238.629822 194.051346,238.633331 194.203552,238.636856 
	C194.181625,238.905579 194.159698,239.174316 193.958435,239.439117 
z"/>
<path fill="#07312F" opacity="1.000000" stroke="none" 
	d="
M198.475586,106.600349 
	C198.457077,106.073814 198.662415,105.748444 198.867767,105.423080 
	C199.164017,105.710472 199.460266,105.997871 199.756516,106.285271 
	C199.404160,106.457352 199.051804,106.629433 198.475586,106.600349 
z"/>
<path fill="#0C5D59" opacity="1.000000" stroke="none" 
	d="
M195.349609,117.517105 
	C194.635513,117.701515 194.300888,117.517662 194.439407,116.910912 
	C194.466537,116.792000 194.633896,116.637978 194.755096,116.619110 
	C195.321884,116.530922 195.584641,116.796349 195.349609,117.517105 
z"/>
<path fill="#094543" opacity="1.000000" stroke="none" 
	d="
M195.456299,191.729187 
	C195.806656,192.502441 195.531342,192.802414 194.981812,192.728851 
	C194.764648,192.699783 194.446152,192.369797 194.423477,192.150970 
	C194.363251,191.569412 194.713730,191.366257 195.456299,191.729187 
z"/>
<path fill="#073836" opacity="1.000000" stroke="none" 
	d="
M194.737137,165.310287 
	C194.927261,165.993225 194.862930,166.515503 194.216324,166.440491 
	C193.985764,166.413727 193.646393,166.063248 193.614746,165.826111 
	C193.529358,165.185745 193.990265,165.064987 194.737137,165.310287 
z"/>
<path fill="#147D6D" opacity="1.000000" stroke="none" 
	d="
M195.645813,52.012520 
	C195.307663,51.958420 195.164932,51.830826 194.850861,51.472885 
	C195.090546,51.434975 196.276962,50.334133 195.645813,52.012520 
z"/>
<path fill="#169688" opacity="1.000000" stroke="none" 
	d="
M197.508286,156.513214 
	C197.485580,156.522415 197.530991,156.504028 197.508286,156.513214 
z"/>
<path fill="#041816" opacity="1.000000" stroke="none" 
	d="
M570.426514,229.567566 
	C572.069336,231.303467 573.745361,232.929001 571.822388,234.927063 
	C571.243042,235.528976 569.645752,237.543625 568.763184,235.572266 
	C567.854736,233.543472 566.307495,230.687897 570.426514,229.567566 
z"/>
<path fill="#041E1C" opacity="1.000000" stroke="none" 
	d="
M568.811035,255.907532 
	C569.441223,254.795898 569.820557,253.498398 570.918945,254.789169 
	C571.232971,255.158264 571.223450,256.301239 570.898132,256.629883 
	C569.465393,258.077301 572.136047,261.988037 568.704956,261.475952 
	C566.923462,261.210083 568.264465,258.111481 568.811035,255.907532 
z"/>
<path fill="#041E1C" opacity="1.000000" stroke="none" 
	d="
M572.763672,43.327019 
	C575.045593,40.998184 576.143250,43.697105 577.753174,44.405048 
	C576.061768,44.020901 573.920227,48.289112 572.763672,43.327019 
z"/>
<path fill="#041E1C" opacity="1.000000" stroke="none" 
	d="
M569.672485,129.559555 
	C568.935547,128.499893 568.452209,127.703514 567.649231,126.380348 
	C569.934265,126.467316 571.365234,127.209167 571.910400,128.709442 
	C572.170105,129.424194 571.187256,130.460037 569.672485,129.559555 
z"/>
<path fill="#073836" opacity="1.000000" stroke="none" 
	d="
M568.963989,107.430313 
	C568.103027,104.857704 569.777771,105.349030 570.928833,105.382202 
	C571.258850,105.391716 571.895935,105.989677 571.847046,106.137169 
	C571.427490,107.403038 570.783936,108.455292 568.963989,107.430313 
z"/>
<path fill="#073836" opacity="1.000000" stroke="none" 
	d="
M572.218628,216.089722 
	C573.598755,216.450058 574.610229,217.021072 574.197510,218.435760 
	C574.101807,218.763992 573.391602,219.246735 573.190918,219.156128 
	C571.931946,218.587753 570.982605,217.774017 572.218628,216.089722 
z"/>
<path fill="#07312F" opacity="1.000000" stroke="none" 
	d="
M574.574097,267.661133 
	C574.118652,268.829285 573.953857,269.979767 572.807800,270.127106 
	C571.743835,270.263824 572.092407,269.274353 572.075073,268.779633 
	C572.006714,266.827515 573.066589,266.646149 574.574097,267.661133 
z"/>
<path fill="#07312F" opacity="1.000000" stroke="none" 
	d="
M571.278076,135.230194 
	C569.953613,134.461838 568.527710,134.193604 568.315247,132.012390 
	C569.863647,133.066833 572.708191,131.759903 571.278076,135.230194 
z"/>
<path fill="#0C5D59" opacity="1.000000" stroke="none" 
	d="
M569.723938,164.769714 
	C568.874451,164.081039 568.835327,163.292908 569.422119,162.572357 
	C569.536682,162.431686 570.083374,162.433350 570.247498,162.577698 
	C571.111267,163.337494 570.597778,164.030457 569.723938,164.769714 
z"/>
<path fill="#073836" opacity="1.000000" stroke="none" 
	d="
M566.463989,165.288696 
	C565.279236,163.995514 566.029785,163.385330 566.857849,162.817459 
	C567.416809,162.434082 567.846863,162.842804 567.833923,163.270081 
	C567.808350,164.118073 568.832520,165.600418 566.463989,165.288696 
z"/>
<path fill="#148474" opacity="1.000000" stroke="none" 
	d="
M571.553589,209.407944 
	C570.541687,209.593094 570.135986,209.141251 570.149109,208.396210 
	C570.158691,207.855392 570.490967,207.412521 571.091309,207.615341 
	C571.827637,207.864105 571.949280,208.494949 571.553589,209.407944 
z"/>
<path fill="#0C5D59" opacity="1.000000" stroke="none" 
	d="
M567.066956,241.277344 
	C567.047363,239.928192 567.246765,239.195297 568.166809,240.502365 
	C568.684753,241.238266 569.728638,242.140076 568.209656,242.790680 
	C567.395630,243.139359 567.219604,242.263840 567.066956,241.277344 
z"/>
<path fill="#07312F" opacity="1.000000" stroke="none" 
	d="
M567.875977,145.955750 
	C566.687134,145.191223 566.748657,144.303238 567.690125,143.609726 
	C567.946716,143.420731 568.783569,143.527893 568.923035,143.759125 
	C569.440430,144.616913 568.813843,145.248260 567.875977,145.955750 
z"/>
<path fill="#073836" opacity="1.000000" stroke="none" 
	d="
M575.032471,221.674316 
	C574.210144,222.813034 573.343628,222.931946 572.496460,222.167511 
	C572.359009,222.043457 572.388000,221.480774 572.543335,221.329254 
	C573.338257,220.553925 574.202209,220.454742 575.032471,221.674316 
z"/>
<path fill="#07312F" opacity="1.000000" stroke="none" 
	d="
M573.265381,200.235779 
	C573.708374,199.294037 573.901672,198.187866 574.987671,198.851715 
	C575.244995,199.009018 575.374146,199.753494 575.239136,200.103104 
	C574.858521,201.088791 574.096680,201.112396 573.265381,200.235779 
z"/>
<path fill="#094543" opacity="1.000000" stroke="none" 
	d="
M569.154907,57.153107 
	C570.247681,56.978008 570.865967,57.387383 570.570557,58.371780 
	C570.461548,58.734840 569.926697,59.272423 569.659302,59.233078 
	C568.526489,59.066406 569.017212,58.114811 569.154907,57.153107 
z"/>
<path fill="#158677" opacity="1.000000" stroke="none" 
	d="
M572.041382,163.283081 
	C572.114014,162.415222 572.245789,161.809311 572.377502,161.203384 
	C573.522278,161.824051 572.965515,162.764328 572.810974,163.616455 
	C572.791443,163.724014 572.561218,163.882172 572.456421,163.863205 
	C572.322998,163.839050 572.217834,163.658279 572.041382,163.283081 
z"/>
<path fill="#094543" opacity="1.000000" stroke="none" 
	d="
M761.871704,257.952850 
	C759.617432,257.626556 757.177490,259.092712 755.854431,256.412598 
	C760.504089,255.086975 760.504089,255.086975 761.871704,257.952850 
z"/>
<path fill="#052624" opacity="1.000000" stroke="none" 
	d="
M760.508301,207.539230 
	C761.700928,206.549530 762.099365,204.702347 763.663330,205.350342 
	C764.055359,205.512772 764.256348,207.390015 763.841187,207.999924 
	C762.803528,209.524338 761.433960,209.438965 760.508301,207.539230 
z"/>
<path fill="#052624" opacity="1.000000" stroke="none" 
	d="
M757.423828,49.449272 
	C758.183716,48.513641 759.051819,47.779514 758.996948,49.307961 
	C758.923767,51.346767 758.066711,53.183659 755.744690,54.148853 
	C755.002747,52.032459 756.781860,51.118805 757.423828,49.449272 
z"/>
<path fill="#1DEFEE" opacity="1.000000" stroke="none" 
	d="
M756.737549,106.807861 
	C756.954895,105.544289 755.958801,104.151260 757.538269,103.568306 
	C758.252136,103.304810 758.923828,103.811813 758.998779,104.468544 
	C759.177979,106.040588 758.771912,107.295296 756.737549,106.807861 
z"/>
<path fill="#073836" opacity="1.000000" stroke="none" 
	d="
M758.054749,178.737595 
	C759.325745,179.413971 759.656128,180.379379 760.050659,181.958633 
	C758.188904,181.156464 756.637146,180.860504 758.054749,178.737595 
z"/>
<path fill="#07312F" opacity="1.000000" stroke="none" 
	d="
M746.505981,46.245663 
	C746.347839,45.372566 746.417358,44.763470 746.743896,43.973602 
	C748.386963,43.862152 749.248474,44.490170 748.914307,45.968403 
	C748.589050,47.407280 747.674561,47.178734 746.505981,46.245663 
z"/>
<path fill="#021110" opacity="1.000000" stroke="none" 
	d="
M761.237671,67.818787 
	C759.466187,67.962090 758.020874,67.962090 755.961426,67.962090 
	C757.520813,65.724518 759.033630,65.361221 761.171997,66.638550 
	C761.427612,67.220436 761.495728,67.447960 761.237671,67.818787 
z"/>
<path fill="#1DEFEE" opacity="1.000000" stroke="none" 
	d="
M761.208130,68.097847 
	C760.974915,67.795334 761.038269,67.628586 761.230591,67.227371 
	C762.367920,67.186546 764.240417,66.588593 764.113464,67.943192 
	C763.945251,69.738449 762.452087,68.438446 761.208130,68.097847 
z"/>
<path fill="#1DEFEE" opacity="1.000000" stroke="none" 
	d="
M764.770386,164.936157 
	C765.265930,165.892212 766.091797,166.853821 765.132446,167.224991 
	C764.091614,167.627655 764.149170,166.397522 763.981262,165.396851 
	C764.157410,164.959305 764.346252,164.812119 764.770386,164.936157 
z"/>
<path fill="#010B0A" opacity="1.000000" stroke="none" 
	d="
M765.308472,164.998337 
	C764.833679,165.182144 764.661682,165.156906 764.229126,165.119080 
	C764.006958,164.120605 763.121094,162.546921 764.650574,162.397812 
	C765.915100,162.274521 766.441833,163.505646 765.308472,164.998337 
z"/>
<path fill="#1DEFEE" opacity="1.000000" stroke="none" 
	d="
M764.448669,49.030170 
	C764.054016,49.577030 763.603882,49.544067 763.615356,49.012192 
	C763.626770,48.482132 764.078003,48.466011 764.448669,49.030170 
z"/>
<path fill="#1DEFEE" opacity="1.000000" stroke="none" 
	d="
M759.708252,88.649414 
	C760.384094,88.546989 760.679321,88.899963 760.288513,89.267220 
	C759.902283,89.630249 759.559570,89.322693 759.708252,88.649414 
z"/>
<path fill="#041E1C" opacity="1.000000" stroke="none" 
	d="
M747.859741,51.761566 
	C746.982849,51.203041 746.206848,50.488853 746.320801,50.293194 
	C746.669861,49.694035 747.363098,49.758217 748.051025,50.536346 
	C748.239868,51.169193 748.303894,51.506104 747.859741,51.761566 
z"/>
<path fill="#041E1C" opacity="1.000000" stroke="none" 
	d="
M747.967957,51.042187 
	C749.025208,51.176983 749.384277,51.733189 748.775574,52.538704 
	C748.710571,52.624699 748.089355,52.290394 747.539062,51.915592 
	C747.487854,51.537426 747.623840,51.394779 747.967957,51.042187 
z"/>
<path fill="#1DEFEE" opacity="1.000000" stroke="none" 
	d="
M760.856506,146.405365 
	C760.921875,146.331543 761.153931,146.590485 761.153931,146.590485 
	C761.153931,146.590485 760.791138,146.479187 760.856506,146.405365 
z"/>
<path fill="#1DEFEE" opacity="1.000000" stroke="none" 
	d="
M762.482178,175.509659 
	C762.470642,175.482803 762.493774,175.536514 762.482178,175.509659 
z"/>
<path fill="#1DEFEE" opacity="1.000000" stroke="none" 
	d="
M754.509521,150.516052 
	C754.485046,150.526382 754.533936,150.505737 754.509521,150.516052 
z"/>
<path fill="#1DEFEE" opacity="1.000000" stroke="none" 
	d="
M749.491150,54.485077 
	C749.514587,54.475365 749.467712,54.494789 749.491150,54.485077 
z"/>
<path fill="#1DEFEE" opacity="1.000000" stroke="none" 
	d="
M757.484985,111.510841 
	C757.473022,111.483932 757.496887,111.537750 757.484985,111.510841 
z"/>
<path fill="#1DEFEE" opacity="1.000000" stroke="none" 
	d="
M756.508911,151.515228 
	C756.484436,151.525436 756.533386,151.505005 756.508911,151.515228 
z"/>
<path fill="#010B0A" opacity="1.000000" stroke="none" 
	d="
M280.637146,179.891632 
	C282.788940,179.934402 284.570587,180.055511 286.362823,180.177353 
	C286.299896,182.927933 284.172791,182.803513 281.963837,183.447693 
	C283.501404,183.833725 284.505890,184.085907 285.797699,184.410233 
	C283.839020,185.548462 281.702515,185.966949 281.026672,188.533600 
	C280.128387,188.392776 279.341309,187.824158 278.467590,187.468063 
	C276.155853,186.525848 276.399475,184.084869 276.259338,182.518143 
	C276.072113,180.424438 278.598389,180.386703 280.637146,179.891632 
z"/>
<path fill="#041816" opacity="1.000000" stroke="none" 
	d="
M269.330383,179.878250 
	C273.723450,177.105042 273.804657,177.177765 273.788696,183.581940 
	C271.771698,183.125687 270.249359,182.085251 269.330383,179.878250 
z"/>
<path fill="#041E1C" opacity="1.000000" stroke="none" 
	d="
M272.384583,175.377121 
	C270.344696,174.391159 269.702484,172.986572 270.114166,171.163483 
	C270.305420,170.316360 271.000458,170.381561 271.645660,170.706665 
	C273.186249,171.482895 274.481049,172.661636 274.780609,174.318619 
	C275.034271,175.721832 273.708252,175.608475 272.384583,175.377121 
z"/>
<path fill="#010B0A" opacity="1.000000" stroke="none" 
	d="
M266.549255,85.053551 
	C268.758911,87.425049 266.736725,88.068665 265.196075,88.601730 
	C264.847565,88.722321 263.137451,89.182571 263.032776,87.602882 
	C262.879364,85.288200 264.363464,84.926659 266.549255,85.053551 
z"/>
<path fill="#041816" opacity="1.000000" stroke="none" 
	d="
M269.029358,41.602337 
	C268.788910,39.698021 269.440857,38.317627 271.231628,38.748272 
	C272.502563,39.053913 272.349457,40.637543 272.036163,41.705448 
	C271.312164,44.172810 270.216522,42.396801 269.029358,41.602337 
z"/>
<path fill="#041E1C" opacity="1.000000" stroke="none" 
	d="
M268.269531,109.182678 
	C267.007202,108.785561 265.356842,109.026649 265.519836,107.534950 
	C265.671082,106.150482 267.183807,105.665016 268.539673,105.881302 
	C270.845734,106.249168 268.933044,107.460136 268.955811,108.650436 
	C268.814117,109.130859 268.656281,109.253860 268.269531,109.182678 
z"/>
<path fill="#052624" opacity="1.000000" stroke="none" 
	d="
M269.664368,186.765732 
	C268.686066,187.417831 267.781372,188.420380 267.313202,186.771500 
	C267.107056,186.045410 267.041290,184.985535 268.008667,184.784241 
	C269.192413,184.537918 269.572754,185.578033 269.664368,186.765732 
z"/>
<path fill="#041816" opacity="1.000000" stroke="none" 
	d="
M267.998901,109.378021 
	C268.040649,108.988503 268.506165,109.007278 268.739075,109.007568 
	C270.754089,110.190498 269.922485,111.891869 269.978729,113.802002 
	C267.911713,112.892151 267.920166,111.337212 267.998901,109.378021 
z"/>
<path fill="#041816" opacity="1.000000" stroke="none" 
	d="
M264.054688,141.528107 
	C265.009460,140.867111 266.205597,140.760666 266.409149,141.438583 
	C266.727478,142.498856 265.588348,143.257126 264.675659,143.391937 
	C263.392303,143.581497 263.662476,142.576538 264.054688,141.528107 
z"/>
<path fill="#052624" opacity="1.000000" stroke="none" 
	d="
M269.959076,122.876709 
	C269.621826,124.954430 268.845581,124.499550 268.239502,123.446968 
	C267.699524,122.509193 267.805023,121.309525 268.930573,120.974380 
	C270.289825,120.569641 269.740997,121.926514 269.959076,122.876709 
z"/>
<path fill="#07312F" opacity="1.000000" stroke="none" 
	d="
M267.550171,82.568939 
	C268.346527,81.209137 269.215240,81.476303 270.035797,82.182297 
	C270.184326,82.310089 270.205292,82.850945 270.066956,83.004089 
	C269.208893,83.954170 268.358154,83.599380 267.550171,82.568939 
z"/>
<path fill="#052624" opacity="1.000000" stroke="none" 
	d="
M266.632782,149.419098 
	C267.699432,149.141449 268.618561,148.951859 268.740540,150.095367 
	C268.770020,150.371445 268.258789,150.919159 267.930023,150.979156 
	C266.965698,151.155090 266.460846,150.585526 266.632782,149.419098 
z"/>
<path fill="#073836" opacity="1.000000" stroke="none" 
	d="
M271.314819,214.145996 
	C272.199738,214.578644 273.062073,215.161926 272.869812,216.298584 
	C272.836884,216.493439 272.381226,216.807404 272.210236,216.757889 
	C270.959473,216.395569 271.177368,215.312973 271.314819,214.145996 
z"/>
<path fill="#052624" opacity="1.000000" stroke="none" 
	d="
M272.499695,117.062408 
	C272.238312,115.999100 271.551849,114.685387 272.945282,114.129601 
	C273.147736,114.048851 273.614075,114.233368 273.744598,114.434090 
	C274.484680,115.572319 274.208496,116.494469 272.499695,117.062408 
z"/>
<path fill="#052624" opacity="1.000000" stroke="none" 
	d="
M264.785004,93.259987 
	C265.857910,92.863304 266.751312,92.630074 266.825500,93.848824 
	C266.844696,94.164291 266.364197,94.734062 266.031921,94.804710 
	C265.065491,95.010185 264.527374,94.495369 264.785004,93.259987 
z"/>
<path fill="#052624" opacity="1.000000" stroke="none" 
	d="
M272.204681,117.228226 
	C271.850861,117.843399 271.152710,118.131966 270.765381,117.619476 
	C270.348969,117.068512 271.160675,117.194519 271.709015,117.003845 
	C271.975281,116.975281 272.128174,117.143936 272.204681,117.228226 
z"/>
<path fill="#000101" opacity="1.000000" stroke="none" 
	d="
M296.560120,56.304420 
	C301.635254,57.424801 306.404114,57.534676 311.571136,57.891666 
	C322.188019,59.080437 327.413910,65.039268 329.330780,74.948425 
	C330.800842,82.548035 330.895233,90.119064 331.102203,97.783058 
	C331.461975,111.106285 331.923462,124.371193 329.030273,137.522263 
	C326.643036,148.373291 322.193146,157.691071 311.296753,163.018097 
	C305.220123,165.401779 299.316833,166.967514 293.041229,166.351898 
	C286.730530,165.732849 284.649017,163.406693 284.529297,157.174820 
	C284.009735,130.124130 284.893555,103.082100 284.946930,76.035530 
	C284.953766,72.568489 284.277039,69.103371 283.982941,65.631783 
	C283.430054,59.105587 285.058594,57.102085 291.658112,56.310093 
	C293.125305,56.134022 294.636688,56.326023 296.560120,56.304420 
z"/>
<path fill="#021110" opacity="1.000000" stroke="none" 
	d="
M343.201050,85.991165 
	C341.145477,82.750015 345.886749,82.546158 345.057343,79.855377 
	C346.815155,85.268494 346.588501,85.988106 343.201050,85.991165 
z"/>
<path fill="#041816" opacity="1.000000" stroke="none" 
	d="
M343.900757,124.976151 
	C346.383270,123.975906 347.092255,125.113304 346.944427,127.125313 
	C346.869354,128.147034 346.358734,129.254623 345.232391,129.023453 
	C343.110352,128.587891 343.175781,126.944405 343.900757,124.976151 
z"/>
<path fill="#041816" opacity="1.000000" stroke="none" 
	d="
M339.053650,153.815460 
	C336.487854,153.736496 337.001160,152.609344 337.807678,151.376221 
	C338.269897,150.669479 338.967651,149.976624 339.722168,150.505402 
	C341.286407,151.601654 340.139984,152.675323 339.053650,153.815460 
z"/>
<path fill="#147D6D" opacity="1.000000" stroke="none" 
	d="
M309.833405,180.420044 
	C310.255829,179.584412 310.587677,179.101837 310.962036,178.319229 
	C312.106018,178.612000 313.233795,179.190964 312.239746,180.993469 
	C311.664276,181.187668 311.301666,181.161880 310.666382,181.118652 
	C310.176788,180.991852 309.959808,180.882477 309.833405,180.420044 
z"/>
<path fill="#021110" opacity="1.000000" stroke="none" 
	d="
M344.257935,89.669701 
	C343.644714,90.453056 343.064728,90.921310 342.484741,91.389557 
	C342.337738,90.847900 341.957489,90.241112 342.087189,89.776726 
	C342.487061,88.344910 343.453278,89.004883 344.257935,89.669701 
z"/>
<path fill="#073836" opacity="1.000000" stroke="none" 
	d="
M341.687622,64.320267 
	C340.340820,64.605080 340.174194,63.975986 340.641327,63.116024 
	C340.831848,62.765282 341.310272,62.570896 341.657684,62.305367 
	C341.729034,62.893581 341.800415,63.481804 341.687622,64.320267 
z"/>
<path fill="#17A99D" opacity="1.000000" stroke="none" 
	d="
M323.489563,43.484730 
	C323.514038,43.474529 323.465088,43.494930 323.489563,43.484730 
z"/>
<path fill="#010B0A" opacity="1.000000" stroke="none" 
	d="
M62.687733,179.980530 
	C63.820473,179.884537 64.671021,179.784683 65.444939,179.983353 
	C66.847893,180.343460 69.196098,178.825958 69.506012,181.127396 
	C69.750832,182.945465 67.263077,182.736786 65.671890,183.569351 
	C66.932327,183.857910 67.843124,184.066422 69.211235,184.379639 
	C67.179596,185.583862 65.054993,186.249161 64.229713,188.725464 
	C58.517437,184.974869 58.128204,182.857956 62.687733,179.980530 
z"/>
<path fill="#041816" opacity="1.000000" stroke="none" 
	d="
M49.676727,84.969543 
	C52.874535,86.284828 50.819305,87.458900 49.800037,88.322327 
	C48.717518,89.239342 47.041935,89.244614 46.576984,87.806770 
	C45.903561,85.724190 47.440449,84.995300 49.676727,84.969543 
z"/>
<path fill="#041816" opacity="1.000000" stroke="none" 
	d="
M57.988247,175.327972 
	C55.151573,175.627609 54.150024,173.797684 53.460690,171.760147 
	C53.252132,171.143692 53.991917,170.280746 54.550671,170.549301 
	C56.448029,171.461243 58.234699,172.613281 57.988247,175.327972 
z"/>
<path fill="#010B0A" opacity="1.000000" stroke="none" 
	d="
M55.249893,178.222778 
	C57.079166,180.231491 57.079166,180.231491 56.765404,183.600372 
	C56.120102,181.845856 49.816795,182.393692 55.249893,178.222778 
z"/>
<path fill="#041816" opacity="1.000000" stroke="none" 
	d="
M55.801121,40.380882 
	C55.588017,41.976097 55.474800,43.532551 53.544136,42.514114 
	C52.146770,41.776993 51.793083,40.655338 52.924156,39.350677 
	C54.294155,37.770416 55.089340,38.640934 55.801121,40.380882 
z"/>
<path fill="#052624" opacity="1.000000" stroke="none" 
	d="
M51.881020,108.792603 
	C54.004173,109.453239 53.786346,111.001968 53.942314,112.732910 
	C54.103821,113.260941 54.230568,113.431244 54.189255,113.872025 
	C50.235558,114.552361 51.773148,111.401024 51.073891,109.354492 
	C51.250862,108.846268 51.432076,108.726837 51.881020,108.792603 
z"/>
<path fill="#147D6D" opacity="1.000000" stroke="none" 
	d="
M50.667000,81.631958 
	C51.869865,81.325371 52.967312,80.762436 53.304943,82.146156 
	C53.535927,83.092819 52.666275,83.576874 51.889698,83.754784 
	C50.837318,83.995857 49.475258,84.422554 48.902424,83.193207 
	C48.430798,82.181076 49.725807,82.112549 50.667000,81.631958 
z"/>
<path fill="#041E1C" opacity="1.000000" stroke="none" 
	d="
M54.315582,114.284683 
	C54.027943,113.909843 54.022030,113.677513 53.990265,113.268074 
	C54.136398,113.119614 54.295536,113.172630 54.455070,113.173859 
	C56.179600,113.187157 57.958115,113.386253 57.687973,115.661545 
	C57.562046,116.722137 57.072754,119.006363 55.254559,116.827354 
	C55.043724,116.574677 55.455780,115.121902 54.315582,114.284683 
z"/>
<path fill="#147D6D" opacity="1.000000" stroke="none" 
	d="
M51.594742,253.502289 
	C53.399265,253.643692 54.470478,254.521378 55.327663,255.794525 
	C51.988186,256.106262 51.988186,256.106262 51.594742,253.502289 
z"/>
<path fill="#010B0A" opacity="1.000000" stroke="none" 
	d="
M52.181625,108.675369 
	C51.968945,108.966255 51.789135,108.954689 51.339485,108.954422 
	C50.004539,108.633820 48.546825,108.422394 49.523415,106.821472 
	C50.162392,105.773994 51.555012,105.498131 52.560223,106.050362 
	C54.010426,106.847054 52.351055,107.581078 52.181625,108.675369 
z"/>
<path fill="#041816" opacity="1.000000" stroke="none" 
	d="
M50.542812,141.069489 
	C50.120625,142.423080 49.077850,143.366364 47.256016,143.460068 
	C46.876484,140.896667 48.479473,140.913849 50.542812,141.069489 
z"/>
<path fill="#041E1C" opacity="1.000000" stroke="none" 
	d="
M51.709160,149.203003 
	C52.947151,150.150055 52.461731,150.708405 51.507805,150.921921 
	C51.142834,151.003601 50.385433,150.672684 50.294079,150.378510 
	C50.045101,149.576752 50.668209,149.258896 51.709160,149.203003 
z"/>
<path fill="#041816" opacity="1.000000" stroke="none" 
	d="
M51.056892,185.515656 
	C51.911221,184.150436 52.363392,184.978333 52.729115,185.579041 
	C53.108582,186.202316 52.906048,186.771530 52.139553,186.930359 
	C51.293736,187.105606 51.158833,186.445969 51.056892,185.515656 
z"/>
<path fill="#041E1C" opacity="1.000000" stroke="none" 
	d="
M53.817654,61.923103 
	C53.208092,62.699333 52.630871,62.835667 52.311966,62.095108 
	C52.196674,61.827381 52.494633,61.183800 52.789909,60.976467 
	C53.506470,60.473324 53.847672,60.908871 53.817654,61.923103 
z"/>
<path fill="#052624" opacity="1.000000" stroke="none" 
	d="
M55.940746,215.789917 
	C54.955597,215.849716 54.507301,215.184494 54.558739,214.288681 
	C54.569889,214.094437 55.016655,213.740112 55.208271,213.773376 
	C56.038826,213.917618 56.018093,214.669250 55.940746,215.789917 
z"/>
<path fill="#041816" opacity="1.000000" stroke="none" 
	d="
M49.127029,94.681557 
	C48.351635,94.212021 47.951771,93.737892 48.702217,93.253212 
	C48.897606,93.127007 49.323189,93.139992 49.520004,93.272217 
	C50.231766,93.750351 49.895802,94.249695 49.127029,94.681557 
z"/>
<path fill="#041816" opacity="1.000000" stroke="none" 
	d="
M52.723167,121.663414 
	C52.967464,122.501060 53.150002,123.200241 52.923672,123.722069 
	C52.675114,124.295143 52.156303,123.970032 51.950947,123.519768 
	C51.583458,122.714027 51.706371,121.984619 52.723167,121.663414 
z"/>
<path fill="#147D6D" opacity="1.000000" stroke="none" 
	d="
M50.954308,141.055664 
	C51.112171,140.500671 51.123898,139.752335 51.991863,139.675690 
	C52.099670,139.666168 52.226555,139.872589 52.344601,139.978958 
	C52.030281,140.302582 51.715958,140.626221 51.147434,141.014343 
	C50.893230,141.078857 50.987419,141.006592 50.954308,141.055664 
z"/>
<path fill="#147D6D" opacity="1.000000" stroke="none" 
	d="
M48.845264,177.554504 
	C48.800606,177.469086 49.170944,177.440048 49.170944,177.440048 
	C49.170944,177.440048 48.889923,177.639908 48.845264,177.554504 
z"/>
<path fill="#052624" opacity="1.000000" stroke="none" 
	d="
M56.037888,215.978943 
	C56.201454,216.084381 56.266235,216.288177 56.331017,216.491974 
	C56.212776,216.486969 56.094543,216.481964 55.861187,216.377716 
	C55.746067,216.278488 55.939098,216.077301 56.037888,215.978943 
z"/>
<path fill="#147D6D" opacity="1.000000" stroke="none" 
	d="
M49.486626,80.508652 
	C49.477024,80.485275 49.496231,80.532028 49.486626,80.508652 
z"/>
<path fill="#021110" opacity="1.000000" stroke="none" 
	d="
M493.757172,238.932068 
	C491.934326,239.063644 490.789032,240.716858 488.859039,239.539917 
	C490.853485,236.186539 489.596313,231.197403 494.963257,229.143066 
	C492.176331,232.364685 502.612030,235.828079 493.757172,238.932068 
z"/>
<path fill="#010B0A" opacity="1.000000" stroke="none" 
	d="
M476.213684,135.662567 
	C474.725769,135.822693 474.757172,138.827042 473.317505,137.761490 
	C471.921875,136.728577 471.047272,134.728210 471.371643,132.974625 
	C471.820923,130.545761 473.702301,129.568848 476.583923,130.039185 
	C476.718597,131.806183 476.463440,133.542450 476.213684,135.662567 
z"/>
<path fill="#041E1C" opacity="1.000000" stroke="none" 
	d="
M494.710114,265.664795 
	C496.262604,266.559814 497.437469,265.613770 498.947296,265.574432 
	C498.303772,268.438873 496.457275,270.066559 494.136902,270.484009 
	C493.345154,270.626495 491.455048,268.652924 492.945679,266.412476 
	C493.395630,265.680695 493.826080,265.478394 494.710114,265.664795 
z"/>
<path fill="#052624" opacity="1.000000" stroke="none" 
	d="
M478.739746,179.433182 
	C478.271515,178.954086 478.155243,178.705032 478.079712,178.238037 
	C479.431152,178.317642 481.642090,176.110565 481.954193,178.914520 
	C482.105652,180.275314 480.469482,180.945557 478.739746,179.433182 
z"/>
<path fill="#052624" opacity="1.000000" stroke="none" 
	d="
M491.493042,224.988953 
	C492.460846,223.709259 493.510132,223.711075 494.497711,224.500320 
	C494.700439,224.662308 494.711609,225.509659 494.535492,225.626862 
	C493.496765,226.317886 492.440948,226.235153 491.493042,224.988953 
z"/>
<path fill="#073836" opacity="1.000000" stroke="none" 
	d="
M494.478271,242.277435 
	C495.105042,241.414307 494.951935,240.237793 496.059082,240.316406 
	C496.930420,240.378265 496.994202,241.180389 496.893036,241.759140 
	C496.591217,243.486008 495.465485,243.090652 494.478271,242.277435 
z"/>
<path fill="#17A195" opacity="1.000000" stroke="none" 
	d="
M495.042419,265.529785 
	C494.617554,265.899841 494.181213,265.979858 493.409912,266.088257 
	C493.289520,265.277191 492.970673,264.050568 494.213623,263.890991 
	C494.944824,263.797089 494.981567,264.641052 495.042419,265.529785 
z"/>
<path fill="#07312F" opacity="1.000000" stroke="none" 
	d="
M476.224060,125.745171 
	C475.997955,126.822365 475.445129,127.638687 474.590973,126.928505 
	C473.330048,125.880112 474.637207,125.433556 475.711304,124.946030 
	C476.108154,125.149887 476.129517,125.322403 476.224060,125.745171 
z"/>
<path fill="#19C4BC" opacity="1.000000" stroke="none" 
	d="
M481.445312,150.150391 
	C481.663818,149.992249 481.901093,149.975830 482.132233,150.006348 
	C482.162811,150.010391 482.161835,150.253448 482.175507,150.385818 
	C481.937744,150.359467 481.699951,150.333115 481.445312,150.150391 
z"/>
<path fill="#000101" opacity="1.000000" stroke="none" 
	d="
M79.565247,56.233986 
	C84.632744,57.354099 89.392456,57.547272 94.567886,57.873177 
	C107.032852,60.008572 110.386093,63.612877 113.426788,77.769073 
	C114.316238,94.772987 116.041977,111.449066 114.052658,128.576736 
	C112.451645,135.883438 111.742371,142.945648 108.477951,149.483261 
	C104.209938,158.030777 97.122269,162.528427 88.195145,165.493835 
	C83.779022,166.086288 79.657028,166.746490 75.496033,166.159195 
	C69.971397,165.379425 68.005219,163.186676 68.002075,157.642563 
	C67.987976,132.736252 67.643356,107.829521 68.561073,82.926147 
	C68.755455,77.651558 68.202370,72.309685 67.553474,67.053162 
	C66.602997,59.353699 68.456696,56.785763 76.155136,56.185837 
	C77.142235,56.108913 78.145233,56.235989 79.565247,56.233986 
z"/>
<path fill="#041816" opacity="1.000000" stroke="none" 
	d="
M129.942444,83.020287 
	C129.813095,84.665001 129.947906,86.522217 128.371918,86.516548 
	C126.916061,86.511322 124.214554,86.157867 126.429169,83.334045 
	C127.314072,82.205711 128.053513,80.963295 128.872025,79.753815 
	C130.501053,80.288780 129.716904,81.657471 129.942444,83.020287 
z"/>
<path fill="#021110" opacity="1.000000" stroke="none" 
	d="
M130.285339,125.577888 
	C130.230850,127.255898 130.561447,129.185974 128.326431,128.901657 
	C126.919884,128.722733 126.817101,127.261253 127.008499,126.133324 
	C127.400810,123.821388 128.694580,124.166237 130.285339,125.577888 
z"/>
<path fill="#021110" opacity="1.000000" stroke="none" 
	d="
M122.105583,153.910431 
	C118.883926,152.865692 121.287056,151.759338 121.809151,150.769348 
	C122.168350,150.088242 122.942177,150.123535 123.414177,150.717529 
	C124.585175,152.191193 123.431824,153.031769 122.105583,153.910431 
z"/>
<path fill="#052624" opacity="1.000000" stroke="none" 
	d="
M127.489807,89.318077 
	C127.520760,90.402939 127.110779,91.103554 126.106873,90.786072 
	C125.838226,90.701111 125.515335,89.944778 125.629028,89.662422 
	C125.898109,88.994141 126.570724,88.899193 127.489807,89.318077 
z"/>
<path fill="#15897A" opacity="1.000000" stroke="none" 
	d="
M126.894844,108.230415 
	C126.357346,108.312538 125.973557,108.226997 125.589767,108.141449 
	C125.702179,107.882629 125.750328,107.473320 125.938889,107.392799 
	C126.537590,107.137138 127.164276,107.043251 126.894844,108.230415 
z"/>
<path fill="#15897A" opacity="1.000000" stroke="none" 
	d="
M122.255928,68.433899 
	C122.755844,67.710243 123.163918,67.927658 123.396660,68.413612 
	C123.499550,68.628433 123.403694,69.154289 123.239571,69.241852 
	C122.684372,69.538055 122.378563,69.172646 122.255928,68.433899 
z"/>
<path fill="#15897A" opacity="1.000000" stroke="none" 
	d="
M123.905533,72.402435 
	C123.726089,72.615158 123.472038,72.703835 123.210480,72.745537 
	C123.172623,72.751572 123.098839,72.532318 123.041672,72.417328 
	C123.303947,72.365982 123.566223,72.314644 123.905533,72.402435 
z"/>
<path fill="#052624" opacity="1.000000" stroke="none" 
	d="
M126.882530,69.956261 
	C127.722893,69.105949 128.024567,69.558815 128.058212,70.289230 
	C128.070206,70.549828 127.795357,70.823624 127.651443,71.091400 
	C127.382805,70.815720 127.114166,70.540039 126.882530,69.956261 
z"/>
<path fill="#15897A" opacity="1.000000" stroke="none" 
	d="
M124.661041,146.986389 
	C124.660454,147.084198 124.346123,146.982666 124.346123,146.982666 
	C124.346123,146.982666 124.661636,146.888580 124.661041,146.986389 
z"/>
<path fill="#000302" opacity="1.000000" stroke="none" 
	d="
M455.424866,200.102585 
	C454.006653,200.145111 453.009247,200.124405 452.012146,200.093521 
	C439.811981,199.715683 437.499817,197.602768 439.356628,185.423309 
	C441.835510,169.163727 443.325928,152.716080 447.710968,136.766739 
	C449.029785,131.969894 449.182404,126.814522 452.338654,122.640450 
	C452.790161,122.043297 453.094574,121.095482 454.510040,121.276062 
	C460.132416,130.174774 460.000183,140.372971 461.859436,150.049896 
	C464.201813,162.241379 465.987885,174.534363 468.986420,186.605331 
	C471.297760,195.910065 470.271393,197.362427 460.751129,199.426651 
	C459.147491,199.774368 457.482452,199.839127 455.424866,200.102585 
z"/>
<path fill="#041816" opacity="1.000000" stroke="none" 
	d="
M453.670013,87.577950 
	C452.332855,88.181297 451.124390,88.697388 449.816742,88.191284 
	C448.894867,87.834473 447.093018,88.374458 447.432617,86.677559 
	C447.646729,85.607574 447.818542,83.496689 450.444946,84.401169 
	C450.915314,84.276207 451.035065,84.072304 451.035675,84.202484 
	C451.125336,86.848267 453.156097,85.445290 454.500183,86.208939 
	C454.487518,86.645004 454.137970,87.001228 453.670013,87.577950 
z"/>
<path fill="#052624" opacity="1.000000" stroke="none" 
	d="
M455.252106,62.887512 
	C452.672485,62.143696 449.775391,61.234344 454.658813,58.959801 
	C456.723511,59.912659 455.995605,61.284416 455.252106,62.887512 
z"/>
<path fill="#010B0A" opacity="1.000000" stroke="none" 
	d="
M458.900452,213.435867 
	C460.641388,212.874496 462.105927,212.534302 463.972931,213.276840 
	C462.706940,214.428299 462.437744,216.695450 459.762573,215.064529 
	C458.829254,214.864792 458.511414,214.527054 458.900452,213.435867 
z"/>
<path fill="#07312F" opacity="1.000000" stroke="none" 
	d="
M462.814514,76.062302 
	C462.251740,77.377724 461.613770,78.069054 460.464508,77.234634 
	C459.730621,76.701843 459.941895,76.083611 460.603302,75.705612 
	C461.328308,75.291260 462.185608,73.393616 462.814514,76.062302 
z"/>
<path fill="#052624" opacity="1.000000" stroke="none" 
	d="
M467.154175,97.953568 
	C465.508911,98.605637 465.449982,97.246735 465.345886,96.553856 
	C465.218323,95.704865 466.147766,95.704597 466.776611,95.876053 
	C467.878937,96.176598 467.779694,96.915878 467.154175,97.953568 
z"/>
<path fill="#19BEB5" opacity="1.000000" stroke="none" 
	d="
M458.872314,212.940018 
	C459.279663,213.463074 459.381500,213.839600 459.529907,214.507294 
	C458.611084,214.635391 457.645691,214.472351 456.340149,214.156631 
	C455.999908,213.557831 455.999817,213.111710 455.999878,212.330963 
	C456.855591,212.262070 457.711212,212.527786 458.872314,212.940018 
z"/>
<path fill="#041E1C" opacity="1.000000" stroke="none" 
	d="
M458.033569,107.612274 
	C456.562012,108.426224 455.553101,108.178123 455.835083,106.079208 
	C457.160980,105.576271 458.142670,105.594322 458.033569,107.612274 
z"/>
<path fill="#19C0B8" opacity="1.000000" stroke="none" 
	d="
M460.086700,51.201775 
	C459.550995,52.016685 459.028412,51.895069 458.645386,51.274132 
	C458.558228,51.132774 458.819580,50.776424 458.920532,50.519020 
	C459.303925,50.672771 459.687317,50.826515 460.086700,51.201775 
z"/>
<path fill="#19C0B8" opacity="1.000000" stroke="none" 
	d="
M463.867371,89.437706 
	C463.943085,89.139465 464.124207,88.957375 464.305359,88.775299 
	C464.791077,89.289696 464.439850,89.446533 463.867371,89.437706 
z"/>
<path fill="#0C5D59" opacity="1.000000" stroke="none" 
	d="
M454.029358,48.550385 
	C454.031219,48.112095 454.226349,48.054398 454.715424,47.914391 
	C455.739594,48.273056 456.102448,48.819221 455.274719,49.756596 
	C454.756805,49.562786 454.489716,49.246880 454.029358,48.550385 
z"/>
<path fill="#19C0B8" opacity="1.000000" stroke="none" 
	d="
M458.589722,82.861504 
	C458.661224,82.925407 458.409821,83.150764 458.409821,83.150764 
	C458.409821,83.150764 458.518250,82.797600 458.589722,82.861504 
z"/>
<path fill="#19C0B8" opacity="1.000000" stroke="none" 
	d="
M463.481689,111.512207 
	C463.469849,111.484955 463.493561,111.539452 463.481689,111.512207 
z"/>
<path fill="#041E1C" opacity="1.000000" stroke="none" 
	d="
M436.293701,123.206291 
	C434.404083,123.121483 432.771271,123.011452 432.594086,120.797752 
	C432.491852,119.520676 432.795990,118.923615 434.476074,119.467682 
	C435.201324,120.844017 439.462982,120.120377 436.293701,123.206291 
z"/>
<path fill="#021110" opacity="1.000000" stroke="none" 
	d="
M453.727081,47.830246 
	C453.836090,48.169796 453.650909,48.306721 453.701721,48.410004 
	C453.266937,48.534698 452.767365,48.640301 452.298340,48.562286 
	C450.669342,48.291313 448.253021,49.435810 447.721252,47.061787 
	C447.319305,45.267315 448.536865,44.386604 450.341461,45.728649 
	C450.965607,46.192806 451.561829,46.706245 452.230408,47.094532 
	C452.633667,47.328709 453.151642,47.365318 453.727081,47.830246 
z"/>
<path fill="#073836" opacity="1.000000" stroke="none" 
	d="
M434.977020,219.513763 
	C433.741089,220.508560 432.206299,220.829208 431.708832,219.433792 
	C431.077911,217.663818 433.089569,217.828125 434.391113,217.212341 
	C434.807343,217.813690 434.909180,218.491150 434.977020,219.513763 
z"/>
<path fill="#052624" opacity="1.000000" stroke="none" 
	d="
M443.746460,89.660202 
	C442.558228,91.251099 441.858032,90.743126 441.738495,89.479477 
	C441.658508,88.633575 441.642517,87.265640 443.063599,87.382378 
	C444.093628,87.466995 444.097931,88.450302 443.746460,89.660202 
z"/>
<path fill="#094543" opacity="1.000000" stroke="none" 
	d="
M440.540833,108.994408 
	C440.052216,109.886772 439.477173,110.149574 438.835327,109.702324 
	C438.280853,109.315910 438.565704,108.793045 438.940247,108.477386 
	C439.516846,107.991394 440.117371,108.034859 440.540833,108.994408 
z"/>
<path fill="#07312F" opacity="1.000000" stroke="none" 
	d="
M435.968384,217.336197 
	C436.002472,216.629135 436.236389,216.253235 436.731750,215.669525 
	C437.917633,215.646027 439.090149,215.763382 438.679169,217.098969 
	C438.254608,218.478592 437.279724,218.680664 435.968384,217.336197 
z"/>
<path fill="#19BEB5" opacity="1.000000" stroke="none" 
	d="
M444.447327,106.042725 
	C444.053558,106.589409 443.603516,106.556290 443.614441,106.025291 
	C443.625397,105.495300 444.076447,105.480179 444.447327,106.042725 
z"/>
<path fill="#19BEB5" opacity="1.000000" stroke="none" 
	d="
M445.651794,111.281860 
	C445.549408,110.615768 445.896606,110.328773 446.257599,110.712799 
	C446.614258,111.092270 446.315125,111.429649 445.651794,111.281860 
z"/>
<path fill="#17A89D" opacity="1.000000" stroke="none" 
	d="
M450.836060,84.472336 
	C450.880280,84.417610 450.964966,84.355110 450.983124,84.414597 
	C450.916565,84.536583 450.876526,84.464569 450.836060,84.472336 
z"/>
<path fill="#19BEB5" opacity="1.000000" stroke="none" 
	d="
M448.488190,55.483459 
	C448.513824,55.472584 448.462555,55.494335 448.488190,55.483459 
z"/>
<path fill="#19BEB5" opacity="1.000000" stroke="none" 
	d="
M446.510986,56.515099 
	C446.486633,56.525162 446.535339,56.505035 446.510986,56.515099 
z"/>
<path fill="#041E1C" opacity="1.000000" stroke="none" 
	d="
M585.179688,265.797791 
	C585.369202,264.309387 583.007690,262.526276 585.760864,262.005493 
	C587.145508,261.743561 588.800232,262.351379 588.422852,263.905182 
	C588.206848,264.794739 588.248535,268.155670 585.179688,265.797791 
z"/>
<path fill="#094543" opacity="1.000000" stroke="none" 
	d="
M583.412231,268.447327 
	C584.673950,268.460907 585.241821,269.146362 585.032104,270.225708 
	C584.986206,270.462006 584.265381,270.813812 584.002075,270.716309 
	C583.106201,270.384491 583.226685,269.501343 583.412231,268.447327 
z"/>
<path fill="#1AD2CD" opacity="1.000000" stroke="none" 
	d="
M581.512085,246.519516 
	C581.483826,246.532104 581.540283,246.506927 581.512085,246.519516 
z"/>
<path fill="#052624" opacity="1.000000" stroke="none" 
	d="
M421.512573,203.270966 
	C422.695374,201.444153 423.872437,200.547089 425.500214,202.234848 
	C426.087433,202.843689 426.518677,203.559799 425.640991,204.248520 
	C424.015625,205.524002 422.652527,204.792725 421.512573,203.270966 
z"/>
<path fill="#041816" opacity="1.000000" stroke="none" 
	d="
M432.965637,143.641022 
	C429.996094,143.330933 430.880341,141.401840 431.040619,138.533478 
	C432.057404,140.817337 432.634888,142.114410 432.965637,143.641022 
z"/>
<path fill="#19BBB2" opacity="1.000000" stroke="none" 
	d="
M424.057678,185.043671 
	C425.206085,185.468750 425.897614,186.177002 424.634949,186.607452 
	C423.489716,186.997894 422.139465,186.643921 421.898407,184.975174 
	C422.526276,184.980927 423.154114,184.986694 424.057678,185.043671 
z"/>
<path fill="#147D6D" opacity="1.000000" stroke="none" 
	d="
M426.293060,213.606445 
	C425.605591,214.593384 424.889404,215.103058 424.309570,214.068680 
	C424.103760,213.701508 424.418213,212.668198 424.803528,212.422485 
	C425.594788,211.917877 426.360718,212.140030 426.293060,213.606445 
z"/>
<path fill="#07312F" opacity="1.000000" stroke="none" 
	d="
M424.373657,191.350586 
	C425.396332,190.980453 426.193665,191.040146 426.248871,192.082474 
	C426.266266,192.411469 425.858093,193.024353 425.585541,193.060455 
	C424.599670,193.191025 424.404510,192.351212 424.373657,191.350586 
z"/>
<path fill="#021110" opacity="1.000000" stroke="none" 
	d="
M419.376282,198.003052 
	C418.996185,197.201096 418.968231,196.472443 418.972107,195.378326 
	C421.328491,196.162308 421.490845,196.848831 419.376282,198.003052 
z"/>
<path fill="#0C5D59" opacity="1.000000" stroke="none" 
	d="
M419.393890,217.847412 
	C419.126740,217.446701 419.146515,217.122498 419.145386,216.555145 
	C420.145020,216.214050 421.109161,216.238159 421.287933,217.519135 
	C421.296295,217.578903 420.248413,217.786102 419.393890,217.847412 
z"/>
<path fill="#094543" opacity="1.000000" stroke="none" 
	d="
M431.380432,210.940155 
	C431.944916,211.834595 431.858032,212.491760 431.159821,212.792282 
	C430.921906,212.894699 430.176178,212.498199 430.138580,212.255829 
	C430.031311,211.564377 429.686493,210.509048 431.380432,210.940155 
z"/>
<path fill="#17A99D" opacity="1.000000" stroke="none" 
	d="
M419.275879,228.885239 
	C419.189148,227.672989 420.017395,227.062225 421.668701,226.983795 
	C421.194855,227.561127 420.375153,228.157089 419.275879,228.885239 
z"/>
<path fill="#19BBB2" opacity="1.000000" stroke="none" 
	d="
M421.510559,224.517136 
	C421.484497,224.528381 421.536652,224.505890 421.510559,224.517136 
z"/>
<path fill="#148170" opacity="1.000000" stroke="none" 
	d="
M69.752853,45.832916 
	C69.775566,46.850365 69.663727,48.066086 69.233963,48.191380 
	C68.170624,48.501400 68.156647,47.407169 68.005028,46.337448 
	C68.405647,45.623833 68.900436,45.460594 69.752853,45.832916 
z"/>
<path fill="#073836" opacity="1.000000" stroke="none" 
	d="
M70.108238,45.929050 
	C69.578247,46.105110 69.124405,46.079361 68.329926,46.039185 
	C68.410805,45.650215 68.832314,45.275665 69.758789,45.102158 
	C70.263748,45.303196 70.184387,45.727238 70.108238,45.929050 
z"/>
<path fill="#073836" opacity="1.000000" stroke="none" 
	d="
M69.951691,44.936325 
	C70.253311,44.439255 70.638969,43.921547 71.195633,44.591187 
	C71.209854,44.608292 70.838730,44.945744 70.455536,45.218494 
	C70.263748,45.303196 70.055870,45.058483 69.951691,44.936325 
z"/>
<path fill="#052624" opacity="1.000000" stroke="none" 
	d="
M309.672577,179.962219 
	C309.987457,180.246017 310.050934,180.425034 310.254089,180.852631 
	C309.797607,181.719009 309.024475,182.192612 308.276428,181.709946 
	C307.914490,181.476379 307.724243,180.539215 307.873383,180.046997 
	C308.139282,179.169235 308.850830,179.573898 309.672577,179.962219 
z"/>
<path fill="#17A397" opacity="1.000000" stroke="none" 
	d="
M286.318359,191.247025 
	C286.969269,190.401443 287.468475,190.566238 287.643036,191.304184 
	C287.708801,191.582199 287.292572,191.974258 287.096100,192.314331 
	C286.816986,192.039810 286.537903,191.765305 286.318359,191.247025 
z"/>
<path fill="#094543" opacity="1.000000" stroke="none" 
	d="
M286.653717,44.928162 
	C286.649353,45.913548 285.718964,46.385609 285.190918,45.714252 
	C284.554932,44.905640 285.740021,44.997124 286.653717,44.928162 
z"/>
<path fill="#094543" opacity="1.000000" stroke="none" 
	d="
M286.819336,44.808388 
	C286.935516,44.568684 287.157684,44.435722 287.379852,44.302757 
	C287.417419,44.513100 287.454987,44.723450 287.316162,45.029995 
	C287.139740,45.126190 286.925323,44.915123 286.819336,44.808388 
z"/>
<path fill="#041E1C" opacity="1.000000" stroke="none" 
	d="
M414.846069,243.780243 
	C412.439484,244.962631 412.439484,244.962631 409.666809,244.422195 
	C411.429565,243.190430 412.830505,241.719559 414.846069,243.780243 
z"/>
<path fill="#18B7AE" opacity="1.000000" stroke="none" 
	d="
M411.682861,256.347107 
	C412.797455,257.141449 412.492859,257.825073 411.719910,258.280701 
	C411.445312,258.442596 410.654480,258.281372 410.526886,258.040863 
	C410.065460,257.170929 410.462372,256.556885 411.682861,256.347107 
z"/>
<path fill="#052624" opacity="1.000000" stroke="none" 
	d="
M412.773071,240.030136 
	C412.138824,239.053940 411.602722,238.033005 412.768402,237.900864 
	C413.926361,237.769638 415.040588,238.657867 414.853882,239.988571 
	C414.680786,241.222183 413.757721,240.755219 412.773071,240.030136 
z"/>
<path fill="#07312F" opacity="1.000000" stroke="none" 
	d="
M416.580597,231.974396 
	C415.389587,231.173035 415.618622,230.578476 416.548462,230.262695 
	C416.876190,230.151382 417.540741,230.332352 417.715729,230.599670 
	C418.279358,231.460831 417.978516,232.019684 416.580597,231.974396 
z"/>
<path fill="#18B7AE" opacity="1.000000" stroke="none" 
	d="
M415.721680,207.652618 
	C416.382507,207.551453 416.668213,207.896271 416.286987,208.254501 
	C415.910095,208.608704 415.575653,208.310303 415.721680,207.652618 
z"/>
<path fill="#18B7AE" opacity="1.000000" stroke="none" 
	d="
M414.151611,203.570892 
	C413.986572,203.343307 413.969116,203.096481 414.000702,202.856094 
	C414.004944,202.824097 414.258026,202.824814 414.395844,202.810364 
	C414.368744,203.058121 414.341644,203.305893 414.151611,203.570892 
z"/>
<path fill="#18B7AE" opacity="1.000000" stroke="none" 
	d="
M411.879272,267.648621 
	C411.527954,267.687622 411.278778,267.605927 411.029602,267.524231 
	C411.107819,267.421387 411.213593,267.219421 411.259644,267.232208 
	C411.508392,267.301453 411.742371,267.423828 411.879272,267.648621 
z"/>
<path fill="#18B7AE" opacity="1.000000" stroke="none" 
	d="
M413.483337,222.510223 
	C413.472260,222.484589 413.494446,222.535858 413.483337,222.510223 
z"/>
<path fill="#1BD9D5" opacity="1.000000" stroke="none" 
	d="
M624.642395,265.188477 
	C624.723206,265.423859 624.666199,265.639404 624.547485,265.812744 
	C624.519348,265.853851 624.284302,265.753265 624.144409,265.717834 
	C624.256958,265.529663 624.369507,265.341461 624.642395,265.188477 
z"/>
<path fill="#1BD9D5" opacity="1.000000" stroke="none" 
	d="
M624.793823,271.773621 
	C625.019592,271.628143 625.259888,271.626587 625.492737,271.667664 
	C625.519043,271.672272 625.502991,271.916962 625.506653,272.050323 
	C625.273132,272.010254 625.039612,271.970184 624.793823,271.773621 
z"/>
<path fill="#041816" opacity="1.000000" stroke="none" 
	d="
M91.740906,179.546204 
	C92.704292,179.934540 93.709915,180.150604 93.326111,181.149338 
	C93.184250,181.518494 92.234901,181.922394 91.836876,181.783997 
	C90.590279,181.350571 90.972549,180.400467 91.740906,179.546204 
z"/>
<path fill="#094543" opacity="1.000000" stroke="none" 
	d="
M702.909912,40.713562 
	C702.514099,38.739330 704.078430,38.561272 704.425903,39.081497 
	C705.127197,40.131268 705.315125,41.587212 705.482178,42.905109 
	C705.571228,43.607647 704.867676,44.017872 704.135193,43.883038 
	C702.343994,43.553329 703.542236,41.977871 702.909912,40.713562 
z"/>
<path fill="#041E1C" opacity="1.000000" stroke="none" 
	d="
M304.217163,46.147564 
	C303.616028,45.976517 303.264618,45.904675 303.058136,45.692081 
	C302.205658,44.814407 300.687836,44.441364 300.745331,42.886662 
	C300.755371,42.614620 301.362427,42.188194 301.736450,42.135387 
	C303.803436,41.843559 303.829559,43.666168 304.538696,45.210270 
	C304.596375,45.762390 304.564941,45.972221 304.217163,46.147564 
z"/>
<path fill="#052624" opacity="1.000000" stroke="none" 
	d="
M308.681641,44.390495 
	C307.573914,44.238716 306.842743,43.625114 306.673767,42.549847 
	C306.665802,42.499107 307.290771,42.200550 307.514679,42.288380 
	C308.320862,42.604599 308.886108,43.173332 308.681641,44.390495 
z"/>
<path fill="#041E1C" opacity="1.000000" stroke="none" 
	d="
M304.436707,45.680561 
	C304.732208,46.006222 305.222870,46.674168 304.012482,46.286758 
	C303.900787,46.113079 304.245575,45.808563 304.436707,45.680561 
z"/>
<path fill="#041E1C" opacity="1.000000" stroke="none" 
	d="
M85.954491,42.158623 
	C87.483543,42.998447 87.727928,44.182632 87.898979,45.578800 
	C84.348808,44.305248 84.348808,44.305248 85.954491,42.158623 
z"/>
<path fill="#07312F" opacity="1.000000" stroke="none" 
	d="
M90.799881,43.943199 
	C90.296555,43.183407 89.933975,42.465839 90.842316,42.316505 
	C91.770309,42.163944 92.341743,42.962799 92.304420,43.795761 
	C92.260506,44.775635 91.568275,44.496639 90.799881,43.943199 
z"/>
</svg>